<svg width="17" height="18" viewBox="0 0 17 18" fill="none" xmlns="http://www.w3.org/2000/svg">
<path d="M15.5908 17.0905C15.2083 17.4729 14.6896 17.6878 14.1487 17.6878C13.6078 17.6878 13.0891 17.4729 12.7066 17.0905L8.20085 11.9406L3.69513 17.0888C3.50631 17.2807 3.28136 17.4333 3.03325 17.5379C2.78514 17.6424 2.51879 17.6968 2.24956 17.6979C1.98032 17.699 1.71354 17.6468 1.46459 17.5443C1.21563 17.4417 0.989447 17.2909 0.799068 17.1006C0.60869 16.9102 0.457889 16.684 0.355363 16.435C0.252838 16.1861 0.200617 15.9193 0.201713 15.6501C0.20281 15.3808 0.257201 15.1145 0.361751 14.8664C0.4663 14.6183 0.618938 14.3933 0.810861 14.2045L5.49844 8.85067L0.809161 3.49344C0.617239 3.30461 0.4646 3.07966 0.360051 2.83155C0.255502 2.58345 0.20111 2.31709 0.200014 2.04786C0.198918 1.77863 0.251138 1.51184 0.353664 1.26289C0.456189 1.01394 0.60699 0.78775 0.797369 0.597372C0.987747 0.406993 1.21394 0.256192 1.46289 0.153667C1.71184 0.0511415 1.97862 -0.00107938 2.24786 1.69095e-05C2.51709 0.0011132 2.78344 0.0555047 3.03155 0.160054C3.27966 0.264604 3.50461 0.417242 3.69343 0.609165L8.20085 5.76074L12.7066 0.609165C12.8954 0.417242 13.1203 0.264604 13.3684 0.160054C13.6166 0.0555047 13.8829 0.0011132 14.1521 1.69095e-05C14.4214 -0.00107938 14.6882 0.0511415 14.9371 0.153667C15.1861 0.256192 15.4122 0.406993 15.6026 0.597372C15.793 0.78775 15.9438 1.01394 16.0463 1.26289C16.1489 1.51184 16.2011 1.77863 16.2 2.04786C16.1989 2.31709 16.1445 2.58345 16.0399 2.83155C15.9354 3.07966 15.7828 3.30461 15.5908 3.49344L10.9033 8.85067L15.5908 14.2045C15.7805 14.3939 15.9309 14.6189 16.0335 14.8665C16.1362 15.1141 16.189 15.3795 16.189 15.6475C16.189 15.9155 16.1362 16.1809 16.0335 16.4285C15.9309 16.6761 15.7805 16.901 15.5908 17.0905V17.0905Z" fill="white"/>
</svg>
