<svg width="12" height="14" viewBox="0 0 12 14" fill="none" xmlns="http://www.w3.org/2000/svg">
<path d="M11.3193 12.5693C11.038 12.8505 10.6564 13.0086 10.2586 13.0086C9.86083 13.0086 9.47931 12.8505 9.19801 12.5693L5.88426 8.78176L2.57051 12.568C2.43164 12.7092 2.2662 12.8214 2.08373 12.8983C1.90126 12.9752 1.70537 13.0152 1.50736 13.016C1.30935 13.0168 1.11314 12.9784 0.930048 12.903C0.746956 12.8276 0.580604 12.7167 0.44059 12.5767C0.300575 12.4367 0.189668 12.2703 0.114265 12.0872C0.0388622 11.9041 0.000456072 11.7079 0.00126235 11.5099C0.00206862 11.3119 0.0420711 11.116 0.118962 10.9335C0.195854 10.7511 0.308112 10.5856 0.449263 10.4468L3.89676 6.50926L0.448013 2.56926C0.306863 2.43039 0.194604 2.26495 0.117713 2.08248C0.0408212 1.90001 0.00081871 1.70412 1.24362e-05 1.50611C-0.000793838 1.3081 0.0376123 1.11189 0.113015 0.928798C0.188418 0.745706 0.299325 0.579355 0.43934 0.43934C0.579355 0.299325 0.745706 0.188418 0.928798 0.113015C1.11189 0.0376123 1.3081 -0.000793838 1.50611 1.24362e-05C1.70412 0.00081871 1.90001 0.0408212 2.08248 0.117713C2.26495 0.194604 2.43039 0.306863 2.56926 0.448013L5.88426 4.23676L9.19801 0.448013C9.33688 0.306863 9.50233 0.194604 9.6848 0.117713C9.86727 0.0408212 10.0632 0.00081871 10.2612 1.24362e-05C10.4592 -0.000793838 10.6554 0.0376123 10.8385 0.113015C11.0216 0.188418 11.1879 0.299325 11.3279 0.43934C11.4679 0.579355 11.5789 0.745706 11.6543 0.928798C11.7297 1.11189 11.7681 1.3081 11.7673 1.50611C11.7665 1.70412 11.7265 1.90001 11.6496 2.08248C11.5727 2.26495 11.4604 2.43039 11.3193 2.56926L7.87176 6.50926L11.3193 10.4468C11.4587 10.5861 11.5694 10.7515 11.6449 10.9336C11.7203 11.1157 11.7592 11.3109 11.7592 11.508C11.7592 11.7051 11.7203 11.9003 11.6449 12.0824C11.5694 12.2645 11.4587 12.43 11.3193 12.5693Z" fill="white"/>
</svg>
