<svg width="29" height="28" viewBox="0 0 29 28" fill="none" xmlns="http://www.w3.org/2000/svg">
<ellipse cx="14.7109" cy="14" rx="14" ry="13.9673" fill="#071359"/>
<path d="M7.14983 13.2929C6.7593 13.6834 6.7593 14.3166 7.14983 14.7071L13.5138 21.0711C13.9043 21.4616 14.5375 21.4616 14.928 21.0711C15.3185 20.6805 15.3185 20.0474 14.928 19.6569L9.27115 14L14.928 8.34315C15.3185 7.95262 15.3185 7.31946 14.928 6.92893C14.5375 6.53841 13.9043 6.53841 13.5138 6.92893L7.14983 13.2929ZM21.5651 15C22.1174 15 22.5651 14.5523 22.5651 14C22.5651 13.4477 22.1174 13 21.5651 13V15ZM7.85693 15H21.5651V13H7.85693V15Z" fill="white"/>
</svg>
