<svg width="23" height="20" viewBox="0 0 23 20" fill="none" xmlns="http://www.w3.org/2000/svg">
<path fill-rule="evenodd" clip-rule="evenodd" d="M22.75 9.84553C22.75 10.2185 22.6018 10.5762 22.3381 10.8399C22.0744 11.1036 21.7167 11.2518 21.3437 11.2518H5.05093L11.0894 17.2874C11.2201 17.4181 11.3238 17.5734 11.3946 17.7442C11.4654 17.915 11.5018 18.0981 11.5018 18.283C11.5018 18.4679 11.4654 18.651 11.3946 18.8219C11.3238 18.9927 11.2201 19.1479 11.0894 19.2787C10.9586 19.4094 10.8034 19.5131 10.6326 19.5839C10.4617 19.6546 10.2787 19.6911 10.0937 19.6911C9.90884 19.6911 9.72575 19.6546 9.55492 19.5839C9.38409 19.5131 9.22887 19.4094 9.09812 19.2787L0.660621 10.8412C0.529662 10.7105 0.42576 10.5553 0.354867 10.3845C0.283973 10.2136 0.247482 10.0305 0.247482 9.84553C0.247482 9.66056 0.283973 9.4774 0.354867 9.30656C0.42576 9.13571 0.529662 8.98053 0.660621 8.8499L9.09812 0.412402C9.36218 0.148346 9.72031 0 10.0937 0C10.4672 0 10.8253 0.148346 11.0894 0.412402C11.3534 0.676458 11.5018 1.0346 11.5018 1.40803C11.5018 1.78146 11.3534 2.1396 11.0894 2.40365L5.05093 8.43928H21.3437C21.7167 8.43928 22.0744 8.58743 22.3381 8.85116C22.6018 9.11488 22.75 9.47257 22.75 9.84553Z" fill="white"/>
</svg>
