<svg width="34" height="34" viewBox="0 0 34 34" fill="none" xmlns="http://www.w3.org/2000/svg">
<g clip-path="url(#clip0_208_1746)">
<rect width="34" height="34" fill="white"/>
<path d="M12.5187 27.6782L10.1362 29.1959C8.34573 29.9407 6.59857 28.0915 7.46853 26.347L9.25432 22.7659C10.4308 20.4067 9.71577 17.5707 7.57364 16.0865L4.40236 13.4538L4.07853 13.8392L4.38267 13.4383C3.10796 12.4858 4.02138 10.4524 5.59562 10.738L10.8021 11.6828C12.9602 12.0744 15.1091 10.8529 15.8872 8.79231L17.199 5.31804L17.577 4.4002C18.311 2.61747 20.8675 2.71879 21.4143 4.53591L21.6711 6.50585L21.7748 8.38578L21.7755 8.39865L21.7769 8.41145L21.8806 9.37633C22.111 11.5197 23.8416 13.1749 26.0014 13.3174L30.738 13.63C32.6357 13.7552 33.1257 16.2924 31.4236 17.1591L27.7281 18.8776L27.6947 18.8903C25.6069 19.6849 24.4461 21.9235 25.015 24.0581L25.4993 23.9236L25.0218 24.0811L26.3037 28.0929L26.7727 30.8913C26.8368 31.9416 25.6312 32.6076 24.7828 31.9811L24.736 31.9466L22.463 29.6373L18.8935 25.6865C17.8634 24.5464 16.0501 24.6007 15.0555 25.786L12.5187 27.6782Z" stroke="#03318C"/>
<path d="M12.9578 15.1015C12.9208 15.3849 12.6404 15.5975 12.3184 15.5603C11.9965 15.5231 11.779 15.253 11.816 14.9695C11.853 14.6861 12.1335 14.4735 12.4554 14.5107C12.7773 14.5479 12.9948 14.818 12.9578 15.1015Z" stroke="#03318C" stroke-width="0.2"/>
<path d="M19.1732 11.2877C19.1362 11.5712 18.8557 11.7838 18.5338 11.7466C18.2119 11.7094 17.9944 11.4392 18.0314 11.1557C18.0684 10.8723 18.3489 10.6597 18.6708 10.6969C18.9927 10.7341 19.2102 11.0042 19.1732 11.2877Z" stroke="#03318C" stroke-width="0.2"/>
<path d="M24.642 16.2415C24.605 16.525 24.3246 16.7376 24.0026 16.7004C23.6807 16.6631 23.4633 16.393 23.5002 16.1095C23.5372 15.8261 23.8177 15.6135 24.1396 15.6507C24.4615 15.6879 24.679 15.958 24.642 16.2415Z" stroke="#03318C" stroke-width="0.2"/>
<path d="M10.889 14.3082C10.8577 14.5486 10.6193 14.7306 10.3436 14.6987C10.068 14.6669 9.88347 14.436 9.91483 14.1956C9.94619 13.9552 10.1846 13.7732 10.4602 13.8051C10.7359 13.8369 10.9204 14.0678 10.889 14.3082Z" stroke="#03318C" stroke-width="0.2"/>
<path d="M8.91478 13.5723C8.88705 13.7848 8.6688 13.9509 8.40887 13.9209C8.14893 13.8908 7.97987 13.68 8.00759 13.4674C8.03532 13.2549 8.25357 13.0888 8.5135 13.1188C8.77344 13.1488 8.9425 13.3597 8.91478 13.5723Z" stroke="#03318C" stroke-width="0.2"/>
<ellipse rx="0.455409" ry="0.424769" transform="matrix(0.993389 0.114798 -0.129362 0.991597 6.66033 12.7238)" stroke="#03318C" stroke-width="0.2"/>
<path d="M5.30974 12.1412C5.29299 12.2696 5.16398 12.3721 5.00862 12.3541C4.85327 12.3362 4.75443 12.2074 4.77118 12.079C4.78793 11.9506 4.91695 11.8481 5.0723 11.8661C5.22765 11.884 5.32649 12.0128 5.30974 12.1412Z" stroke="#03318C" stroke-width="0.2"/>
<path d="M21.9463 22.9648C21.9093 23.2482 21.6288 23.4608 21.3069 23.4236C20.985 23.3864 20.7675 23.1163 20.8045 22.8328C20.8415 22.5493 21.1219 22.3367 21.4438 22.3739C21.7658 22.4111 21.9832 22.6813 21.9463 22.9648Z" stroke="#03318C" stroke-width="0.2"/>
<path d="M22.9138 24.6742C22.8825 24.9146 22.6441 25.0966 22.3684 25.0648C22.0928 25.0329 21.9082 24.802 21.9396 24.5616C21.971 24.3212 22.2094 24.1392 22.485 24.1711C22.7607 24.2029 22.9452 24.4338 22.9138 24.6742Z" stroke="#03318C" stroke-width="0.2"/>
<path d="M23.8792 26.3909C23.8515 26.6034 23.6332 26.7695 23.3733 26.7395C23.1133 26.7094 22.9443 26.4986 22.972 26.286C22.9997 26.0735 23.218 25.9074 23.4779 25.9374C23.7379 25.9674 23.9069 26.1783 23.8792 26.3909Z" stroke="#03318C" stroke-width="0.2"/>
<path d="M24.6577 28.0525C24.6354 28.224 24.4643 28.3571 24.2627 28.3338C24.061 28.3105 23.9292 28.1424 23.9516 27.9709C23.974 27.7995 24.1451 27.6664 24.3467 27.6897C24.5483 27.713 24.6801 27.8811 24.6577 28.0525Z" stroke="#03318C" stroke-width="0.2"/>
<path d="M25.2144 29.522C25.1977 29.6503 25.0686 29.7528 24.9133 29.7349C24.7579 29.7169 24.6591 29.5881 24.6758 29.4597C24.6926 29.3313 24.8216 29.2288 24.977 29.2468C25.1323 29.2648 25.2312 29.3936 25.2144 29.522Z" stroke="#03318C" stroke-width="0.2"/>
<path d="M14.2006 21.8352C14.1636 22.1186 13.8832 22.3312 13.5612 22.294C13.2393 22.2568 13.0218 21.9867 13.0588 21.7032C13.0958 21.4198 13.3763 21.2072 13.6982 21.2444C14.0201 21.2816 14.2376 21.5517 14.2006 21.8352Z" stroke="#03318C" stroke-width="0.2"/>
<path d="M19.3565 9.23067C19.3251 9.47106 19.0868 9.65307 18.8111 9.62122C18.5355 9.58936 18.3509 9.35848 18.3823 9.11809C18.4137 8.8777 18.652 8.69568 18.9277 8.72754C19.2033 8.75939 19.3879 8.99028 19.3565 9.23067Z" stroke="#03318C" stroke-width="0.2"/>
<path d="M19.5478 7.24237C19.5201 7.4549 19.3019 7.62103 19.0419 7.59099C18.782 7.56095 18.6129 7.35006 18.6407 7.13753C18.6684 6.925 18.8866 6.75887 19.1466 6.78891C19.4065 6.81895 19.5756 7.02984 19.5478 7.24237Z" stroke="#03318C" stroke-width="0.2"/>
<path d="M19.7148 5.44122C19.6924 5.61269 19.5213 5.74576 19.3197 5.72246C19.1181 5.69916 18.9863 5.53109 19.0087 5.35962C19.0311 5.18815 19.2021 5.05508 19.4038 5.07838C19.6054 5.10168 19.7372 5.26975 19.7148 5.44122Z" stroke="#03318C" stroke-width="0.2"/>
<path d="M19.8255 3.94078C19.8087 4.06917 19.6797 4.17166 19.5244 4.1537C19.369 4.13575 19.2702 4.00693 19.2869 3.87854C19.3037 3.75016 19.4327 3.64767 19.588 3.66562C19.7434 3.68358 19.8422 3.81239 19.8255 3.94078Z" stroke="#03318C" stroke-width="0.2"/>
<path d="M12.6825 23.4918C12.6511 23.7322 12.4127 23.9142 12.1371 23.8824C11.8614 23.8505 11.6769 23.6197 11.7083 23.3793C11.7396 23.1389 11.978 22.9569 12.2537 22.9887C12.5293 23.0206 12.7139 23.2514 12.6825 23.4918Z" stroke="#03318C" stroke-width="0.2"/>
<path d="M11.5295 25.1374C11.5017 25.35 11.2835 25.5161 11.0236 25.4861C10.7636 25.456 10.5946 25.2451 10.6223 25.0326C10.65 24.8201 10.8683 24.654 11.1282 24.684C11.3881 24.714 11.5572 24.9249 11.5295 25.1374Z" stroke="#03318C" stroke-width="0.2"/>
<path d="M10.2233 26.5452C10.2009 26.7166 10.0298 26.8497 9.82821 26.8264C9.6266 26.8031 9.4948 26.635 9.51717 26.4636C9.53954 26.2921 9.71062 26.159 9.91224 26.1823C10.1139 26.2056 10.2457 26.3737 10.2233 26.5452Z" stroke="#03318C" stroke-width="0.2"/>
<path d="M9.13616 27.8382C9.11941 27.9666 8.99039 28.0691 8.83504 28.0512C8.67969 28.0332 8.58085 27.9044 8.5976 27.776C8.61434 27.6476 8.74336 27.5451 8.89871 27.5631C9.05406 27.581 9.15291 27.7099 9.13616 27.8382Z" stroke="#03318C" stroke-width="0.2"/>
<path d="M26.8331 15.9404C26.8018 16.1808 26.5634 16.3629 26.2877 16.331C26.0121 16.2991 25.8276 16.0683 25.8589 15.8279C25.8903 15.5875 26.1287 15.4055 26.4043 15.4373C26.68 15.4692 26.8645 15.7001 26.8331 15.9404Z" stroke="#03318C" stroke-width="0.2"/>
<path d="M28.9514 15.6775C28.9237 15.8901 28.7054 16.0562 28.4455 16.0262C28.1856 15.9961 28.0165 15.7852 28.0442 15.5727C28.0719 15.3602 28.2902 15.1941 28.5501 15.2241C28.8101 15.2541 28.9791 15.465 28.9514 15.6775Z" stroke="#03318C" stroke-width="0.2"/>
<path d="M30.6222 15.3966C30.5998 15.5681 30.4288 15.7011 30.2271 15.6778C30.0255 15.6545 29.8937 15.4865 29.9161 15.315C29.9385 15.1435 30.1095 15.0105 30.3112 15.0338C30.5128 15.0571 30.6446 15.2251 30.6222 15.3966Z" stroke="#03318C" stroke-width="0.2"/>
<path d="M32.2616 15.2558C32.2448 15.3842 32.1158 15.4867 31.9605 15.4687C31.8051 15.4508 31.7063 15.3219 31.723 15.1935C31.7398 15.0652 31.8688 14.9627 32.0241 14.9806C32.1795 14.9986 32.2783 15.1274 32.2616 15.2558Z" stroke="#03318C" stroke-width="0.2"/>
<path d="M19.0528 13.5949C18.9934 14.0506 18.5447 14.3856 18.0377 14.327C17.5307 14.2684 17.1814 13.8412 17.2408 13.3855C17.3003 12.9297 17.749 12.5947 18.256 12.6533C18.763 12.7119 19.1123 13.1391 19.0528 13.5949Z" stroke="#03318C" stroke-width="0.2"/>
<path d="M15.6969 16.03C15.6375 16.4858 15.1888 16.8208 14.6818 16.7622C14.1748 16.7036 13.8255 16.2764 13.8849 15.8206C13.9444 15.3649 14.3931 15.0299 14.9001 15.0885C15.4071 15.1471 15.7564 15.5743 15.6969 16.03Z" stroke="#03318C" stroke-width="0.2"/>
<path d="M15.7801 20.1568C15.7207 20.6126 15.2719 20.9475 14.765 20.889C14.258 20.8304 13.9087 20.4032 13.9681 19.9474C14.0276 19.4916 14.4763 19.1567 14.9833 19.2153C15.4903 19.2739 15.8396 19.701 15.7801 20.1568Z" stroke="#03318C" stroke-width="0.2"/>
<path d="M21.2287 20.7865C21.1693 21.2422 20.7206 21.5772 20.2136 21.5186C19.7066 21.46 19.3573 21.0328 19.4167 20.5771C19.4762 20.1213 19.9249 19.7863 20.4319 19.8449C20.9389 19.9035 21.2882 20.3307 21.2287 20.7865Z" stroke="#03318C" stroke-width="0.2"/>
<path d="M22.5641 16.6653C22.5047 17.1211 22.0559 17.456 21.5489 17.3974C21.042 17.3388 20.6927 16.9117 20.7521 16.4559C20.8116 16.0001 21.2603 15.6652 21.7673 15.7238C22.2743 15.7823 22.6236 16.2095 22.5641 16.6653Z" stroke="#03318C" stroke-width="0.2"/>
</g>
<defs>
<clipPath id="clip0_208_1746">
<rect width="34" height="34" fill="white"/>
</clipPath>
</defs>
</svg>
