<svg width="45" height="42" viewBox="0 0 45 42" fill="none" xmlns="http://www.w3.org/2000/svg">
<path d="M25.8706 13.8417L25.8713 13.854L25.8725 13.8661L25.9633 14.7638C26.1837 16.9428 27.9409 18.6467 30.1257 18.7999L34.1857 19.0846C36.0713 19.2168 36.6125 21.7294 34.9528 22.6273L31.4758 24.3452C29.4721 25.1657 28.374 27.3346 28.9013 29.4367L28.9197 29.5097L28.9225 29.521L28.9258 29.5321L30.1326 33.5449L30.5747 36.3474L30.5777 36.3892C30.6499 37.3934 29.5111 38.0113 28.7105 37.4194L26.5753 35.1144L23.2427 31.1953C22.262 30.042 20.4765 30.0798 19.5431 31.2572L17.1566 33.1485L14.9169 34.6644C13.2687 35.3909 11.586 33.681 12.3571 32.038L14.2141 28.0814C15.2895 25.7901 14.5948 23.0595 12.5583 21.5603L9.57468 18.9287L9.56497 18.9201L9.55483 18.9121C8.30798 17.9222 9.22599 15.9244 10.7892 16.2258L15.3198 17.0993C17.5034 17.5203 19.6672 16.283 20.4119 14.1875L21.623 10.7797L21.9917 9.82811C22.641 8.15276 25.043 8.27254 25.531 9.98864L25.773 11.9609L25.8706 13.8417Z" fill="#05A6A6" fill-opacity="0.15" stroke="#05A6A6"/>
<path d="M17.5951 20.5653C17.5597 20.8541 17.2938 21.0609 16.9992 21.0247C16.7046 20.9886 16.4966 20.7235 16.5321 20.4347C16.5675 20.1459 16.8335 19.9391 17.128 19.9752C17.4226 20.0114 17.6306 20.2765 17.5951 20.5653Z" fill="#05A6A6" stroke="#05A6A6" stroke-width="0.2"/>
<path d="M23.4449 16.7515C23.4095 17.0403 23.1435 17.2471 22.849 17.211C22.5544 17.1748 22.3464 16.9097 22.3819 16.6209C22.4173 16.3321 22.6833 16.1253 22.9778 16.1615C23.2724 16.1976 23.4804 16.4627 23.4449 16.7515Z" fill="#05A6A6" stroke="#05A6A6" stroke-width="0.2"/>
<path d="M28.592 21.7053C28.5566 21.9941 28.2906 22.2009 27.9961 22.1647C27.7015 22.1286 27.4935 21.8635 27.529 21.5747C27.5644 21.2859 27.8303 21.0791 28.1249 21.1153C28.4195 21.1514 28.6275 21.4165 28.592 21.7053Z" fill="#05A6A6" stroke="#05A6A6" stroke-width="0.2"/>
<path d="M15.6481 19.772C15.6179 20.0177 15.3916 20.194 15.1405 20.1631C14.8895 20.1323 14.7125 19.9065 14.7427 19.6608C14.7729 19.4151 14.9992 19.2388 15.2502 19.2696C15.5013 19.3005 15.6782 19.5262 15.6481 19.772Z" fill="#05A6A6" stroke="#05A6A6" stroke-width="0.2"/>
<path d="M13.79 19.0361C13.7632 19.2538 13.5559 19.4143 13.3196 19.3853C13.0832 19.3563 12.9209 19.1504 12.9477 18.9326C12.9744 18.7149 13.1817 18.5544 13.418 18.5834C13.6544 18.6124 13.8167 18.8183 13.79 19.0361Z" fill="#05A6A6" stroke="#05A6A6" stroke-width="0.2"/>
<ellipse cx="11.6739" cy="18.1883" rx="0.428984" ry="0.424363" transform="rotate(7 11.6739 18.1883)" fill="#05A6A6" stroke="#05A6A6" stroke-width="0.2"/>
<path d="M10.397 17.605C10.3806 17.7387 10.2572 17.8355 10.1194 17.8185C9.98155 17.8016 9.88521 17.6779 9.90163 17.5442C9.91805 17.4105 10.0415 17.3137 10.1793 17.3307C10.3171 17.3476 10.4134 17.4713 10.397 17.605Z" fill="#05A6A6" stroke="#05A6A6" stroke-width="0.2"/>
<path d="M26.0549 28.4285C26.0194 28.7173 25.7535 28.9242 25.4589 28.888C25.1643 28.8518 24.9563 28.5868 24.9918 28.298C25.0272 28.0092 25.2932 27.8024 25.5878 27.8385C25.8823 27.8747 26.0903 28.1397 26.0549 28.4285Z" fill="#05A6A6" stroke="#05A6A6" stroke-width="0.2"/>
<path d="M26.9655 30.138C26.9353 30.3837 26.709 30.56 26.458 30.5292C26.2069 30.4983 26.03 30.2725 26.0601 30.0268C26.0903 29.7811 26.3167 29.6048 26.5677 29.6357C26.8187 29.6665 26.9957 29.8923 26.9655 30.138Z" fill="#05A6A6" stroke="#05A6A6" stroke-width="0.2"/>
<path d="M27.8741 31.8547C27.8474 32.0724 27.6401 32.2329 27.4037 32.2039C27.1674 32.1749 27.0051 31.969 27.0318 31.7512C27.0586 31.5335 27.2659 31.373 27.5022 31.402C27.7385 31.431 27.9009 31.6369 27.8741 31.8547Z" fill="#05A6A6" stroke="#05A6A6" stroke-width="0.2"/>
<path d="M28.6069 33.5163C28.5852 33.6931 28.4222 33.8205 28.2408 33.7982C28.0595 33.7759 27.9321 33.6129 27.9538 33.4361C27.9755 33.2594 28.1385 33.132 28.3199 33.1543C28.5012 33.1766 28.6286 33.3395 28.6069 33.5163Z" fill="#05A6A6" stroke="#05A6A6" stroke-width="0.2"/>
<path d="M29.1308 34.9857C29.1143 35.1195 28.9909 35.2162 28.8531 35.1993C28.7153 35.1824 28.619 35.0586 28.6354 34.9249C28.6518 34.7912 28.7752 34.6945 28.913 34.7114C29.0508 34.7283 29.1472 34.852 29.1308 34.9857Z" fill="#05A6A6" stroke="#05A6A6" stroke-width="0.2"/>
<path d="M18.7648 27.299C18.7294 27.5878 18.4634 27.7946 18.1689 27.7584C17.8743 27.7223 17.6663 27.4572 17.7017 27.1684C17.7372 26.8796 18.0031 26.6728 18.2977 26.7089C18.5923 26.7451 18.8003 27.0102 18.7648 27.299Z" fill="#05A6A6" stroke="#05A6A6" stroke-width="0.2"/>
<path d="M23.6174 14.6945C23.5873 14.9402 23.3609 15.1164 23.1099 15.0856C22.8589 15.0548 22.6819 14.829 22.7121 14.5833C22.7422 14.3376 22.9686 14.1613 23.2196 14.1921C23.4706 14.2229 23.6476 14.4487 23.6174 14.6945Z" fill="#05A6A6" stroke="#05A6A6" stroke-width="0.2"/>
<path d="M23.7975 12.7062C23.7708 12.9239 23.5635 13.0844 23.3271 13.0554C23.0908 13.0264 22.9285 12.8205 22.9552 12.6027C22.982 12.385 23.1893 12.2245 23.4256 12.2535C23.6619 12.2825 23.8243 12.4884 23.7975 12.7062Z" fill="#05A6A6" stroke="#05A6A6" stroke-width="0.2"/>
<path d="M23.9547 10.905C23.933 11.0818 23.77 11.2091 23.5886 11.1869C23.4072 11.1646 23.2799 11.0016 23.3016 10.8248C23.3233 10.648 23.4863 10.5207 23.6677 10.543C23.849 10.5652 23.9764 10.7282 23.9547 10.905Z" fill="#05A6A6" stroke="#05A6A6" stroke-width="0.2"/>
<path d="M24.0589 9.40457C24.0424 9.53828 23.919 9.63502 23.7812 9.6181C23.6434 9.60118 23.5471 9.47746 23.5635 9.34374C23.5799 9.21003 23.7033 9.11329 23.8411 9.13021C23.9789 9.14713 24.0753 9.27085 24.0589 9.40457Z" fill="#05A6A6" stroke="#05A6A6" stroke-width="0.2"/>
<path d="M17.3361 28.9556C17.3059 29.2013 17.0796 29.3776 16.8285 29.3468C16.5775 29.316 16.4005 29.0902 16.4307 28.8445C16.4609 28.5987 16.6872 28.4225 16.9382 28.4533C17.1893 28.4841 17.3662 28.7099 17.3361 28.9556Z" fill="#05A6A6" stroke="#05A6A6" stroke-width="0.2"/>
<path d="M16.2508 30.6012C16.2241 30.819 16.0168 30.9795 15.7805 30.9505C15.5441 30.9214 15.3818 30.7156 15.4085 30.4978C15.4353 30.28 15.6426 30.1196 15.8789 30.1486C16.1153 30.1776 16.2776 30.3835 16.2508 30.6012Z" fill="#05A6A6" stroke="#05A6A6" stroke-width="0.2"/>
<path d="M15.0215 32.0089C14.9998 32.1857 14.8368 32.3131 14.6554 32.2908C14.4741 32.2685 14.3467 32.1056 14.3684 31.9288C14.3901 31.752 14.5531 31.6246 14.7345 31.6469C14.9158 31.6692 15.0432 31.8322 15.0215 32.0089Z" fill="#05A6A6" stroke="#05A6A6" stroke-width="0.2"/>
<path d="M13.9983 33.302C13.9819 33.4357 13.8585 33.5325 13.7207 33.5156C13.5829 33.4986 13.4865 33.3749 13.5029 33.2412C13.5194 33.1075 13.6428 33.0108 13.7806 33.0277C13.9184 33.0446 14.0147 33.1683 13.9983 33.302Z" fill="#05A6A6" stroke="#05A6A6" stroke-width="0.2"/>
<path d="M30.6543 21.4042C30.6241 21.65 30.3978 21.8262 30.1468 21.7954C29.8957 21.7646 29.7187 21.5388 29.7489 21.2931C29.7791 21.0473 30.0054 20.8711 30.2565 20.9019C30.5075 20.9327 30.6845 21.1585 30.6543 21.4042Z" fill="#05A6A6" stroke="#05A6A6" stroke-width="0.2"/>
<path d="M32.6479 21.1413C32.6212 21.3591 32.4139 21.5196 32.1776 21.4906C31.9412 21.4615 31.7789 21.2557 31.8056 21.0379C31.8324 20.8201 32.0397 20.6597 32.276 20.6887C32.5123 20.7177 32.6747 20.9236 32.6479 21.1413Z" fill="#05A6A6" stroke="#05A6A6" stroke-width="0.2"/>
<path d="M34.2205 20.8604C34.1988 21.0372 34.0358 21.1645 33.8544 21.1422C33.6731 21.12 33.5457 20.957 33.5674 20.7802C33.5891 20.6034 33.7521 20.4761 33.9335 20.4984C34.1148 20.5206 34.2422 20.6836 34.2205 20.8604Z" fill="#05A6A6" stroke="#05A6A6" stroke-width="0.2"/>
<path d="M35.7634 20.7196C35.747 20.8533 35.6236 20.95 35.4858 20.9331C35.348 20.9162 35.2517 20.7925 35.2681 20.6587C35.2845 20.525 35.4079 20.4283 35.5457 20.4452C35.6835 20.4621 35.7799 20.5859 35.7634 20.7196Z" fill="#05A6A6" stroke="#05A6A6" stroke-width="0.2"/>
<path d="M23.3316 19.0586C23.275 19.5198 22.8507 19.849 22.3819 19.7914C21.9132 19.7338 21.5811 19.3118 21.6377 18.8507C21.6944 18.3896 22.1187 18.0604 22.5874 18.1179C23.0562 18.1755 23.3882 18.5975 23.3316 19.0586Z" fill="#05A6A6" stroke="#05A6A6" stroke-width="0.2"/>
<path d="M20.1732 21.4938C20.1166 21.9549 19.6923 22.2841 19.2235 22.2266C18.7547 22.169 18.4227 21.747 18.4793 21.2858C18.5359 20.8247 18.9602 20.4955 19.429 20.5531C19.8977 20.6107 20.2298 21.0327 20.1732 21.4938Z" fill="#05A6A6" stroke="#05A6A6" stroke-width="0.2"/>
<path d="M20.2515 25.6206C20.1949 26.0817 19.7706 26.4109 19.3018 26.3534C18.833 26.2958 18.501 25.8737 18.5576 25.4126C18.6142 24.9515 19.0385 24.6223 19.5073 24.6799C19.976 24.7374 20.3081 25.1595 20.2515 25.6206Z" fill="#05A6A6" stroke="#05A6A6" stroke-width="0.2"/>
<path d="M25.3795 26.2502C25.3229 26.7113 24.8986 27.0405 24.4299 26.983C23.9611 26.9254 23.629 26.5034 23.6857 26.0423C23.7423 25.5811 24.1666 25.2519 24.6353 25.3095C25.1041 25.3671 25.4361 25.7891 25.3795 26.2502Z" fill="#05A6A6" stroke="#05A6A6" stroke-width="0.2"/>
<path d="M26.6364 22.1291C26.5797 22.5902 26.1555 22.9194 25.6867 22.8618C25.2179 22.8043 24.8859 22.3822 24.9425 21.9211C24.9991 21.46 25.4234 21.1308 25.8922 21.1883C26.3609 21.2459 26.693 21.668 26.6364 22.1291Z" fill="#05A6A6" stroke="#05A6A6" stroke-width="0.2"/>
</svg>
