<svg width="45" height="42" viewBox="0 0 45 42" fill="none" xmlns="http://www.w3.org/2000/svg">
<path d="M25.8706 13.3772L25.8713 13.3895L25.8725 13.4017L25.9633 14.2993C26.1837 16.4783 27.9409 18.1822 30.1257 18.3354L34.1857 18.6201C36.0713 18.7523 36.6125 21.2649 34.9528 22.1628L31.4758 23.8807C29.4721 24.7012 28.374 26.8701 28.9013 28.9722L28.9197 29.0452L28.9225 29.0565L28.9258 29.0676L30.1326 33.0804L30.5747 35.883L30.5777 35.9247C30.6499 36.9289 29.5111 37.5468 28.7105 36.9549L26.5753 34.6499L23.2427 30.7308C22.262 29.5775 20.4765 29.6153 19.5431 30.7927L17.1566 32.684L14.9169 34.1999C13.2687 34.9264 11.586 33.2165 12.3571 31.5735L14.2141 27.6169C15.2895 25.3257 14.5948 22.595 12.5583 21.0958L9.57468 18.4642L9.56497 18.4556L9.55483 18.4476C8.30798 17.4577 9.22599 15.4599 10.7892 15.7613L15.3198 16.6348C17.5034 17.0558 19.6672 15.8185 20.4119 13.7231L21.623 10.3152L21.9917 9.36362C22.641 7.68827 25.043 7.80805 25.531 9.52415L25.773 11.4964L25.8706 13.3772Z" stroke="#03318C"/>
<path d="M17.5951 20.1008C17.5597 20.3896 17.2938 20.5964 16.9992 20.5602C16.7046 20.5241 16.4966 20.259 16.5321 19.9702C16.5675 19.6814 16.8335 19.4746 17.128 19.5108C17.4226 19.5469 17.6306 19.812 17.5951 20.1008Z" stroke="#03318C" stroke-width="0.2"/>
<path d="M23.4449 16.287C23.4095 16.5758 23.1435 16.7826 22.849 16.7465C22.5544 16.7103 22.3464 16.4452 22.3819 16.1565C22.4173 15.8677 22.6833 15.6608 22.9778 15.697C23.2724 15.7331 23.4804 15.9982 23.4449 16.287Z" stroke="#03318C" stroke-width="0.2"/>
<path d="M28.592 21.2408C28.5566 21.5296 28.2906 21.7364 27.9961 21.7003C27.7015 21.6641 27.4935 21.399 27.529 21.1102C27.5644 20.8214 27.8303 20.6146 28.1249 20.6508C28.4195 20.6869 28.6275 20.952 28.592 21.2408Z" stroke="#03318C" stroke-width="0.2"/>
<path d="M15.6481 19.3075C15.6179 19.5532 15.3916 19.7295 15.1405 19.6986C14.8895 19.6678 14.7125 19.442 14.7427 19.1963C14.7729 18.9506 14.9992 18.7743 15.2502 18.8051C15.5013 18.836 15.6782 19.0618 15.6481 19.3075Z" stroke="#03318C" stroke-width="0.2"/>
<path d="M13.79 18.5716C13.7632 18.7893 13.5559 18.9498 13.3196 18.9208C13.0832 18.8918 12.9209 18.6859 12.9477 18.4681C12.9744 18.2504 13.1817 18.0899 13.418 18.1189C13.6544 18.1479 13.8167 18.3538 13.79 18.5716Z" stroke="#03318C" stroke-width="0.2"/>
<ellipse cx="11.6739" cy="17.7238" rx="0.428984" ry="0.424363" transform="rotate(7 11.6739 17.7238)" stroke="#03318C" stroke-width="0.2"/>
<path d="M10.397 17.1405C10.3806 17.2742 10.2572 17.371 10.1194 17.354C9.98155 17.3371 9.88521 17.2134 9.90163 17.0797C9.91805 16.946 10.0415 16.8492 10.1793 16.8662C10.3171 16.8831 10.4134 17.0068 10.397 17.1405Z" stroke="#03318C" stroke-width="0.2"/>
<path d="M26.0549 27.964C26.0194 28.2528 25.7535 28.4597 25.4589 28.4235C25.1643 28.3873 24.9563 28.1223 24.9918 27.8335C25.0272 27.5447 25.2932 27.3379 25.5878 27.374C25.8823 27.4102 26.0903 27.6752 26.0549 27.964Z" stroke="#03318C" stroke-width="0.2"/>
<path d="M26.9655 29.6735C26.9353 29.9192 26.709 30.0955 26.458 30.0647C26.2069 30.0338 26.03 29.808 26.0601 29.5623C26.0903 29.3166 26.3167 29.1403 26.5677 29.1712C26.8187 29.202 26.9957 29.4278 26.9655 29.6735Z" stroke="#03318C" stroke-width="0.2"/>
<path d="M27.8741 31.3902C27.8474 31.6079 27.6401 31.7684 27.4037 31.7394C27.1674 31.7104 27.0051 31.5045 27.0318 31.2867C27.0586 31.069 27.2659 30.9085 27.5022 30.9375C27.7385 30.9665 27.9009 31.1724 27.8741 31.3902Z" stroke="#03318C" stroke-width="0.2"/>
<path d="M28.6069 33.0518C28.5852 33.2286 28.4222 33.356 28.2408 33.3337C28.0595 33.3114 27.9321 33.1485 27.9538 32.9717C27.9755 32.7949 28.1385 32.6675 28.3199 32.6898C28.5012 32.7121 28.6286 32.875 28.6069 33.0518Z" stroke="#03318C" stroke-width="0.2"/>
<path d="M29.1308 34.5213C29.1143 34.655 28.9909 34.7517 28.8531 34.7348C28.7153 34.7179 28.619 34.5941 28.6354 34.4604C28.6518 34.3267 28.7752 34.23 28.913 34.2469C29.0508 34.2638 29.1472 34.3875 29.1308 34.5213Z" stroke="#03318C" stroke-width="0.2"/>
<path d="M18.7648 26.8345C18.7294 27.1233 18.4634 27.3301 18.1689 27.2939C17.8743 27.2578 17.6663 26.9927 17.7017 26.7039C17.7372 26.4151 18.0031 26.2083 18.2977 26.2445C18.5923 26.2806 18.8003 26.5457 18.7648 26.8345Z" stroke="#03318C" stroke-width="0.2"/>
<path d="M23.6174 14.23C23.5873 14.4757 23.3609 14.6519 23.1099 14.6211C22.8589 14.5903 22.6819 14.3645 22.7121 14.1188C22.7422 13.8731 22.9686 13.6968 23.2196 13.7276C23.4706 13.7585 23.6476 13.9842 23.6174 14.23Z" stroke="#03318C" stroke-width="0.2"/>
<path d="M23.7975 12.2417C23.7708 12.4594 23.5635 12.6199 23.3271 12.5909C23.0908 12.5619 22.9285 12.356 22.9552 12.1382C22.982 11.9205 23.1893 11.76 23.4256 11.789C23.6619 11.818 23.8243 12.0239 23.7975 12.2417Z" stroke="#03318C" stroke-width="0.2"/>
<path d="M23.9547 10.4405C23.933 10.6173 23.77 10.7446 23.5886 10.7224C23.4072 10.7001 23.2799 10.5371 23.3016 10.3603C23.3233 10.1835 23.4863 10.0562 23.6677 10.0785C23.849 10.1007 23.9764 10.2637 23.9547 10.4405Z" stroke="#03318C" stroke-width="0.2"/>
<path d="M24.0589 8.94007C24.0424 9.07379 23.919 9.17053 23.7812 9.15361C23.6434 9.13669 23.5471 9.01297 23.5635 8.87925C23.5799 8.74554 23.7033 8.6488 23.8411 8.66572C23.9789 8.68264 24.0753 8.80636 24.0589 8.94007Z" stroke="#03318C" stroke-width="0.2"/>
<path d="M17.3361 28.4911C17.3059 28.7368 17.0796 28.9131 16.8285 28.8823C16.5775 28.8515 16.4005 28.6257 16.4307 28.38C16.4609 28.1342 16.6872 27.958 16.9382 27.9888C17.1893 28.0196 17.3662 28.2454 17.3361 28.4911Z" stroke="#03318C" stroke-width="0.2"/>
<path d="M16.2508 30.1367C16.2241 30.3545 16.0168 30.515 15.7805 30.486C15.5441 30.457 15.3818 30.2511 15.4085 30.0333C15.4353 29.8156 15.6426 29.6551 15.8789 29.6841C16.1153 29.7131 16.2776 29.919 16.2508 30.1367Z" stroke="#03318C" stroke-width="0.2"/>
<path d="M15.0215 31.5445C14.9998 31.7213 14.8368 31.8486 14.6554 31.8263C14.4741 31.804 14.3467 31.6411 14.3684 31.4643C14.3901 31.2875 14.5531 31.1602 14.7345 31.1824C14.9158 31.2047 15.0432 31.3677 15.0215 31.5445Z" stroke="#03318C" stroke-width="0.2"/>
<path d="M13.9983 32.8375C13.9819 32.9713 13.8585 33.068 13.7207 33.0511C13.5829 33.0341 13.4865 32.9104 13.5029 32.7767C13.5194 32.643 13.6428 32.5463 13.7806 32.5632C13.9184 32.5801 14.0147 32.7038 13.9983 32.8375Z" stroke="#03318C" stroke-width="0.2"/>
<path d="M30.6543 20.9397C30.6241 21.1855 30.3978 21.3617 30.1468 21.3309C29.8957 21.3001 29.7187 21.0743 29.7489 20.8286C29.7791 20.5829 30.0054 20.4066 30.2565 20.4374C30.5075 20.4682 30.6845 20.694 30.6543 20.9397Z" stroke="#03318C" stroke-width="0.2"/>
<path d="M32.6479 20.6768C32.6212 20.8946 32.4139 21.0551 32.1776 21.0261C31.9412 20.9971 31.7789 20.7912 31.8056 20.5734C31.8324 20.3557 32.0397 20.1952 32.276 20.2242C32.5123 20.2532 32.6747 20.4591 32.6479 20.6768Z" stroke="#03318C" stroke-width="0.2"/>
<path d="M34.2205 20.3959C34.1988 20.5727 34.0358 20.7 33.8544 20.6777C33.6731 20.6555 33.5457 20.4925 33.5674 20.3157C33.5891 20.1389 33.7521 20.0116 33.9335 20.0339C34.1148 20.0561 34.2422 20.2191 34.2205 20.3959Z" stroke="#03318C" stroke-width="0.2"/>
<path d="M35.7634 20.2551C35.747 20.3888 35.6236 20.4855 35.4858 20.4686C35.348 20.4517 35.2517 20.328 35.2681 20.1943C35.2845 20.0605 35.4079 19.9638 35.5457 19.9807C35.6835 19.9976 35.7799 20.1214 35.7634 20.2551Z" stroke="#03318C" stroke-width="0.2"/>
<path d="M23.3316 18.5942C23.275 19.0553 22.8507 19.3845 22.3819 19.3269C21.9132 19.2694 21.5811 18.8473 21.6377 18.3862C21.6944 17.9251 22.1187 17.5959 22.5874 17.6534C23.0562 17.711 23.3882 18.133 23.3316 18.5942Z" stroke="#03318C" stroke-width="0.2"/>
<path d="M20.1732 21.0293C20.1166 21.4904 19.6923 21.8196 19.2235 21.7621C18.7547 21.7045 18.4227 21.2825 18.4793 20.8214C18.5359 20.3602 18.9602 20.031 19.429 20.0886C19.8977 20.1462 20.2298 20.5682 20.1732 21.0293Z" stroke="#03318C" stroke-width="0.2"/>
<path d="M20.2515 25.1561C20.1949 25.6172 19.7706 25.9464 19.3018 25.8889C18.833 25.8313 18.501 25.4092 18.5576 24.9481C18.6142 24.487 19.0385 24.1578 19.5073 24.2154C19.976 24.2729 20.3081 24.695 20.2515 25.1561Z" stroke="#03318C" stroke-width="0.2"/>
<path d="M25.3795 25.7857C25.3229 26.2469 24.8986 26.5761 24.4299 26.5185C23.9611 26.4609 23.629 26.0389 23.6857 25.5778C23.7423 25.1167 24.1666 24.7875 24.6353 24.845C25.1041 24.9026 25.4361 25.3246 25.3795 25.7857Z" stroke="#03318C" stroke-width="0.2"/>
<path d="M26.6364 21.6646C26.5797 22.1257 26.1555 22.4549 25.6867 22.3973C25.2179 22.3398 24.8859 21.9177 24.9425 21.4566C24.9991 20.9955 25.4234 20.6663 25.8922 20.7239C26.3609 20.7814 26.693 21.2035 26.6364 21.6646Z" stroke="#03318C" stroke-width="0.2"/>
</svg>
