<svg width="34" height="34" viewBox="0 0 34 34" fill="none" xmlns="http://www.w3.org/2000/svg">
<g clip-path="url(#clip0_208_1847)">
<rect width="34" height="34" fill="white"/>
<path d="M11.6924 27.684L9.45276 29.1999C7.80458 29.9264 6.12183 28.2165 6.89295 26.5735L8.74995 22.6169C9.82531 20.3257 9.13063 17.595 7.09413 16.0958L4.11054 13.4642L3.7798 13.8392L4.09069 13.4476C2.84384 12.4577 3.76185 10.4599 5.32508 10.7613L9.85564 11.6348C12.0393 12.0558 14.203 10.8185 14.9477 8.72305L16.1588 5.31525L16.5276 4.36362C17.1769 2.68827 19.5789 2.80805 20.0668 4.52415L20.3089 6.49641L20.4065 8.37724L20.4071 8.38947L20.4084 8.40165L20.4992 9.2993C20.7196 11.4783 22.4768 13.1822 24.6616 13.3354L28.7216 13.6201C30.6072 13.7523 31.1483 16.265 29.4886 17.1629L26.0117 18.8807C24.0079 19.7012 22.9099 21.8701 23.4372 23.9722L23.4555 24.0452L23.4583 24.0565L23.4617 24.0676L24.6685 28.0804L25.1106 30.883L25.1136 30.9247C25.1857 31.9289 24.047 32.5468 23.2464 31.9549L21.1111 29.6499L17.7785 25.7308C16.7978 24.5775 15.0123 24.6153 14.0789 25.7927L11.6924 27.684Z" fill="#05A6A6" fill-opacity="0.15" stroke="#05A6A6"/>
<path d="M12.131 15.1008C12.0955 15.3896 11.8296 15.5964 11.535 15.5602C11.2405 15.5241 11.0325 15.259 11.0679 14.9702C11.1034 14.6814 11.3693 14.4746 11.6639 14.5108C11.9585 14.5469 12.1665 14.812 12.131 15.1008Z" fill="#05A6A6" stroke="#05A6A6" stroke-width="0.2"/>
<path d="M17.9808 11.287C17.9453 11.5758 17.6794 11.7826 17.3848 11.7465C17.0902 11.7103 16.8823 11.4452 16.9177 11.1565C16.9532 10.8677 17.2191 10.6608 17.5137 10.697C17.8083 10.7331 18.0163 10.9982 17.9808 11.287Z" fill="#05A6A6" stroke="#05A6A6" stroke-width="0.2"/>
<path d="M23.1279 16.2408C23.0924 16.5296 22.8265 16.7364 22.5319 16.7003C22.2373 16.6641 22.0294 16.399 22.0648 16.1102C22.1003 15.8214 22.3662 15.6146 22.6608 15.6508C22.9554 15.6869 23.1634 15.952 23.1279 16.2408Z" fill="#05A6A6" stroke="#05A6A6" stroke-width="0.2"/>
<path d="M10.1839 14.3075C10.1538 14.5532 9.92742 14.7295 9.67639 14.6986C9.42536 14.6678 9.24838 14.442 9.27855 14.1963C9.30872 13.9506 9.53507 13.7743 9.7861 13.8051C10.0371 13.836 10.2141 14.0618 10.1839 14.3075Z" fill="#05A6A6" stroke="#05A6A6" stroke-width="0.2"/>
<path d="M8.32582 13.5716C8.29908 13.7893 8.09178 13.9498 7.85544 13.9208C7.6191 13.8918 7.45678 13.6859 7.48352 13.4681C7.51026 13.2504 7.71756 13.0899 7.9539 13.1189C8.19023 13.1479 8.35256 13.3538 8.32582 13.5716Z" fill="#05A6A6" stroke="#05A6A6" stroke-width="0.2"/>
<ellipse cx="6.20976" cy="12.7238" rx="0.428984" ry="0.424363" transform="rotate(7 6.20976 12.7238)" fill="#05A6A6" stroke="#05A6A6" stroke-width="0.2"/>
<path d="M4.93285 12.1405C4.91643 12.2742 4.79302 12.371 4.65522 12.354C4.51741 12.3371 4.42107 12.2134 4.43749 12.0797C4.4539 11.946 4.57731 11.8492 4.71512 11.8662C4.85293 11.8831 4.94927 12.0068 4.93285 12.1405Z" fill="#05A6A6" stroke="#05A6A6" stroke-width="0.2"/>
<path d="M20.5907 22.964C20.5553 23.2528 20.2893 23.4597 19.9948 23.4235C19.7002 23.3874 19.4922 23.1223 19.5276 22.8335C19.5631 22.5447 19.829 22.3379 20.1236 22.374C20.4182 22.4102 20.6262 22.6752 20.5907 22.964Z" fill="#05A6A6" stroke="#05A6A6" stroke-width="0.2"/>
<path d="M21.5014 24.6735C21.4712 24.9192 21.2449 25.0955 20.9938 25.0647C20.7428 25.0338 20.5658 24.8081 20.596 24.5623C20.6262 24.3166 20.8525 24.1404 21.1035 24.1712C21.3546 24.202 21.5315 24.4278 21.5014 24.6735Z" fill="#05A6A6" stroke="#05A6A6" stroke-width="0.2"/>
<path d="M22.41 26.3902C22.3832 26.6079 22.1759 26.7684 21.9396 26.7394C21.7033 26.7104 21.5409 26.5045 21.5677 26.2867C21.5944 26.069 21.8017 25.9085 22.0381 25.9375C22.2744 25.9665 22.4367 26.1724 22.41 26.3902Z" fill="#05A6A6" stroke="#05A6A6" stroke-width="0.2"/>
<path d="M23.1427 28.0518C23.121 28.2286 22.958 28.356 22.7767 28.3337C22.5953 28.3114 22.468 28.1485 22.4897 27.9717C22.5114 27.7949 22.6744 27.6675 22.8557 27.6898C23.0371 27.7121 23.1644 27.875 23.1427 28.0518Z" fill="#05A6A6" stroke="#05A6A6" stroke-width="0.2"/>
<path d="M23.6666 29.5213C23.6502 29.655 23.5268 29.7517 23.389 29.7348C23.2512 29.7179 23.1548 29.5941 23.1713 29.4604C23.1877 29.3267 23.3111 29.23 23.4489 29.2469C23.5867 29.2638 23.683 29.3875 23.6666 29.5213Z" fill="#05A6A6" stroke="#05A6A6" stroke-width="0.2"/>
<path d="M13.3007 21.8345C13.2652 22.1233 12.9993 22.3301 12.7047 22.2939C12.4101 22.2578 12.2021 21.9927 12.2376 21.7039C12.2731 21.4151 12.539 21.2083 12.8336 21.2445C13.1282 21.2806 13.3361 21.5457 13.3007 21.8345Z" fill="#05A6A6" stroke="#05A6A6" stroke-width="0.2"/>
<path d="M18.1533 9.22996C18.1231 9.47568 17.8968 9.65195 17.6458 9.62112C17.3947 9.5903 17.2177 9.36451 17.2479 9.11879C17.2781 8.87307 17.5044 8.69681 17.7555 8.72763C18.0065 8.75846 18.1835 8.98424 18.1533 9.22996Z" fill="#05A6A6" stroke="#05A6A6" stroke-width="0.2"/>
<path d="M18.3334 7.24166C18.3066 7.45943 18.0993 7.61991 17.863 7.59089C17.6267 7.56188 17.4643 7.35601 17.4911 7.13824C17.5178 6.92047 17.7251 6.75999 17.9615 6.78901C18.1978 6.81803 18.3601 7.02389 18.3334 7.24166Z" fill="#05A6A6" stroke="#05A6A6" stroke-width="0.2"/>
<path d="M18.4905 5.44051C18.4688 5.61731 18.3058 5.74463 18.1245 5.72237C17.9431 5.7001 17.8157 5.53712 17.8375 5.36033C17.8592 5.18353 18.0222 5.05621 18.2035 5.07848C18.3849 5.10074 18.5122 5.26372 18.4905 5.44051Z" fill="#05A6A6" stroke="#05A6A6" stroke-width="0.2"/>
<path d="M18.5947 3.94007C18.5783 4.07379 18.4549 4.17053 18.3171 4.15361C18.1793 4.13669 18.0829 4.01297 18.0994 3.87925C18.1158 3.74554 18.2392 3.6488 18.377 3.66572C18.5148 3.68264 18.6111 3.80636 18.5947 3.94007Z" fill="#05A6A6" stroke="#05A6A6" stroke-width="0.2"/>
<path d="M11.8719 23.4911C11.8418 23.7369 11.6154 23.9131 11.3644 23.8823C11.1133 23.8515 10.9364 23.6257 10.9665 23.38C10.9967 23.1342 11.2231 22.958 11.4741 22.9888C11.7251 23.0196 11.9021 23.2454 11.8719 23.4911Z" fill="#05A6A6" stroke="#05A6A6" stroke-width="0.2"/>
<path d="M10.7867 25.1367C10.76 25.3545 10.5527 25.515 10.3163 25.486C10.08 25.457 9.91765 25.2511 9.94439 25.0333C9.97113 24.8156 10.1784 24.6551 10.4148 24.6841C10.6511 24.7131 10.8134 24.919 10.7867 25.1367Z" fill="#05A6A6" stroke="#05A6A6" stroke-width="0.2"/>
<path d="M9.55735 26.5445C9.53564 26.7213 9.37265 26.8486 9.19129 26.8263C9.00994 26.804 8.88258 26.6411 8.90429 26.4643C8.926 26.2875 9.089 26.1602 9.27035 26.1824C9.4517 26.2047 9.57906 26.3677 9.55735 26.5445Z" fill="#05A6A6" stroke="#05A6A6" stroke-width="0.2"/>
<path d="M8.53417 27.8375C8.51775 27.9713 8.39434 28.068 8.25653 28.0511C8.11873 28.0341 8.02239 27.9104 8.0388 27.7767C8.05522 27.643 8.17863 27.5463 8.31644 27.5632C8.45425 27.5801 8.55059 27.7038 8.53417 27.8375Z" fill="#05A6A6" stroke="#05A6A6" stroke-width="0.2"/>
<path d="M25.1902 15.9397C25.16 16.1855 24.9336 16.3617 24.6826 16.3309C24.4316 16.3001 24.2546 16.0743 24.2848 15.8286C24.3149 15.5829 24.5413 15.4066 24.7923 15.4374C25.0434 15.4682 25.2203 15.694 25.1902 15.9397Z" fill="#05A6A6" stroke="#05A6A6" stroke-width="0.2"/>
<path d="M27.1838 15.6768C27.1571 15.8946 26.9497 16.0551 26.7134 16.0261C26.4771 15.9971 26.3147 15.7912 26.3415 15.5734C26.3682 15.3557 26.5755 15.1952 26.8119 15.2242C27.0482 15.2532 27.2105 15.4591 27.1838 15.6768Z" fill="#05A6A6" stroke="#05A6A6" stroke-width="0.2"/>
<path d="M28.7563 15.3959C28.7346 15.5727 28.5716 15.7 28.3903 15.6777C28.2089 15.6555 28.0816 15.4925 28.1033 15.3157C28.125 15.1389 28.288 15.0116 28.4693 15.0339C28.6507 15.0561 28.778 15.2191 28.7563 15.3959Z" fill="#05A6A6" stroke="#05A6A6" stroke-width="0.2"/>
<path d="M30.2993 15.2551C30.2829 15.3888 30.1595 15.4855 30.0217 15.4686C29.8839 15.4517 29.7875 15.328 29.8039 15.1943C29.8204 15.0605 29.9438 14.9638 30.0816 14.9807C30.2194 14.9976 30.3157 15.1214 30.2993 15.2551Z" fill="#05A6A6" stroke="#05A6A6" stroke-width="0.2"/>
<path d="M17.8675 13.5942C17.8109 14.0553 17.3866 14.3845 16.9178 14.3269C16.449 14.2694 16.117 13.8473 16.1736 13.3862C16.2302 12.9251 16.6545 12.5959 17.1233 12.6534C17.592 12.711 17.9241 13.133 17.8675 13.5942Z" fill="#05A6A6" stroke="#05A6A6" stroke-width="0.2"/>
<path d="M14.709 16.0293C14.6524 16.4904 14.2281 16.8196 13.7593 16.7621C13.2906 16.7045 12.9585 16.2825 13.0152 15.8214C13.0718 15.3602 13.4961 15.031 13.9648 15.0886C14.4336 15.1462 14.7656 15.5682 14.709 16.0293Z" fill="#05A6A6" stroke="#05A6A6" stroke-width="0.2"/>
<path d="M14.7873 20.1561C14.7307 20.6172 14.3064 20.9464 13.8377 20.8889C13.3689 20.8313 13.0368 20.4092 13.0935 19.9481C13.1501 19.487 13.5744 19.1578 14.0431 19.2154C14.5119 19.2729 14.844 19.695 14.7873 20.1561Z" fill="#05A6A6" stroke="#05A6A6" stroke-width="0.2"/>
<path d="M19.9154 20.7857C19.8588 21.2469 19.4345 21.5761 18.9657 21.5185C18.4969 21.4609 18.1649 21.0389 18.2215 20.5778C18.2781 20.1167 18.7024 19.7875 19.1712 19.845C19.64 19.9026 19.972 20.3246 19.9154 20.7857Z" fill="#05A6A6" stroke="#05A6A6" stroke-width="0.2"/>
<path d="M21.1722 16.6646C21.1156 17.1257 20.6913 17.4549 20.2225 17.3973C19.7538 17.3398 19.4217 16.9177 19.4783 16.4566C19.535 15.9955 19.9593 15.6663 20.428 15.7239C20.8968 15.7814 21.2288 16.2035 21.1722 16.6646Z" fill="#05A6A6" stroke="#05A6A6" stroke-width="0.2"/>
<path d="M12.131 15.1008C12.0955 15.3896 11.8296 15.5964 11.535 15.5602C11.2405 15.5241 11.0325 15.259 11.0679 14.9702C11.1034 14.6814 11.3693 14.4746 11.6639 14.5108C11.9585 14.5469 12.1665 14.812 12.131 15.1008Z" fill="#05A6A6" stroke="#05A6A6" stroke-width="0.2"/>
<path d="M17.9808 11.287C17.9453 11.5758 17.6794 11.7826 17.3848 11.7465C17.0902 11.7103 16.8823 11.4452 16.9177 11.1565C16.9532 10.8677 17.2191 10.6608 17.5137 10.697C17.8083 10.7331 18.0163 10.9982 17.9808 11.287Z" fill="#05A6A6" stroke="#05A6A6" stroke-width="0.2"/>
<path d="M23.1279 16.2408C23.0924 16.5296 22.8265 16.7364 22.5319 16.7003C22.2373 16.6641 22.0294 16.399 22.0648 16.1102C22.1003 15.8214 22.3662 15.6146 22.6608 15.6508C22.9554 15.6869 23.1634 15.952 23.1279 16.2408Z" fill="#05A6A6" stroke="#05A6A6" stroke-width="0.2"/>
<path d="M10.1839 14.3075C10.1538 14.5532 9.92742 14.7295 9.67639 14.6986C9.42536 14.6678 9.24838 14.442 9.27855 14.1963C9.30872 13.9506 9.53507 13.7743 9.7861 13.8051C10.0371 13.836 10.2141 14.0618 10.1839 14.3075Z" fill="#05A6A6" stroke="#05A6A6" stroke-width="0.2"/>
<path d="M8.32582 13.5716C8.29908 13.7893 8.09178 13.9498 7.85544 13.9208C7.6191 13.8918 7.45678 13.6859 7.48352 13.4681C7.51026 13.2504 7.71756 13.0899 7.9539 13.1189C8.19023 13.1479 8.35256 13.3538 8.32582 13.5716Z" fill="#05A6A6" stroke="#05A6A6" stroke-width="0.2"/>
<ellipse cx="6.20976" cy="12.7238" rx="0.428984" ry="0.424363" transform="rotate(7 6.20976 12.7238)" fill="#05A6A6" stroke="#05A6A6" stroke-width="0.2"/>
<path d="M4.93285 12.1405C4.91643 12.2742 4.79302 12.371 4.65522 12.354C4.51741 12.3371 4.42107 12.2134 4.43749 12.0797C4.4539 11.946 4.57731 11.8492 4.71512 11.8662C4.85293 11.8831 4.94927 12.0068 4.93285 12.1405Z" fill="#05A6A6" stroke="#05A6A6" stroke-width="0.2"/>
<path d="M20.5907 22.964C20.5553 23.2528 20.2893 23.4597 19.9948 23.4235C19.7002 23.3874 19.4922 23.1223 19.5276 22.8335C19.5631 22.5447 19.829 22.3379 20.1236 22.374C20.4182 22.4102 20.6262 22.6752 20.5907 22.964Z" fill="#05A6A6" stroke="#05A6A6" stroke-width="0.2"/>
<path d="M21.5014 24.6735C21.4712 24.9192 21.2449 25.0955 20.9938 25.0647C20.7428 25.0338 20.5658 24.8081 20.596 24.5623C20.6262 24.3166 20.8525 24.1404 21.1035 24.1712C21.3546 24.202 21.5315 24.4278 21.5014 24.6735Z" fill="#05A6A6" stroke="#05A6A6" stroke-width="0.2"/>
<path d="M22.41 26.3902C22.3832 26.6079 22.1759 26.7684 21.9396 26.7394C21.7033 26.7104 21.5409 26.5045 21.5677 26.2867C21.5944 26.069 21.8017 25.9085 22.0381 25.9375C22.2744 25.9665 22.4367 26.1724 22.41 26.3902Z" fill="#05A6A6" stroke="#05A6A6" stroke-width="0.2"/>
<path d="M23.1427 28.0518C23.121 28.2286 22.958 28.356 22.7767 28.3337C22.5953 28.3114 22.468 28.1485 22.4897 27.9717C22.5114 27.7949 22.6744 27.6675 22.8557 27.6898C23.0371 27.7121 23.1644 27.875 23.1427 28.0518Z" fill="#05A6A6" stroke="#05A6A6" stroke-width="0.2"/>
<path d="M23.6666 29.5213C23.6502 29.655 23.5268 29.7517 23.389 29.7348C23.2512 29.7179 23.1548 29.5941 23.1713 29.4604C23.1877 29.3267 23.3111 29.23 23.4489 29.2469C23.5867 29.2638 23.683 29.3875 23.6666 29.5213Z" fill="#05A6A6" stroke="#05A6A6" stroke-width="0.2"/>
<path d="M13.3007 21.8345C13.2652 22.1233 12.9993 22.3301 12.7047 22.2939C12.4101 22.2578 12.2021 21.9927 12.2376 21.7039C12.2731 21.4151 12.539 21.2083 12.8336 21.2445C13.1282 21.2806 13.3361 21.5457 13.3007 21.8345Z" fill="#05A6A6" stroke="#05A6A6" stroke-width="0.2"/>
<path d="M18.1533 9.22996C18.1231 9.47568 17.8968 9.65195 17.6458 9.62112C17.3947 9.5903 17.2177 9.36451 17.2479 9.11879C17.2781 8.87307 17.5044 8.69681 17.7555 8.72763C18.0065 8.75846 18.1835 8.98424 18.1533 9.22996Z" fill="#05A6A6" stroke="#05A6A6" stroke-width="0.2"/>
<path d="M18.3334 7.24166C18.3066 7.45943 18.0993 7.61991 17.863 7.59089C17.6267 7.56188 17.4643 7.35601 17.4911 7.13824C17.5178 6.92047 17.7251 6.75999 17.9615 6.78901C18.1978 6.81803 18.3601 7.02389 18.3334 7.24166Z" fill="#05A6A6" stroke="#05A6A6" stroke-width="0.2"/>
<path d="M18.4905 5.44051C18.4688 5.61731 18.3058 5.74463 18.1245 5.72237C17.9431 5.7001 17.8157 5.53712 17.8375 5.36033C17.8592 5.18353 18.0222 5.05621 18.2035 5.07848C18.3849 5.10074 18.5122 5.26372 18.4905 5.44051Z" fill="#05A6A6" stroke="#05A6A6" stroke-width="0.2"/>
<path d="M18.5947 3.94007C18.5783 4.07379 18.4549 4.17053 18.3171 4.15361C18.1793 4.13669 18.0829 4.01297 18.0994 3.87925C18.1158 3.74554 18.2392 3.6488 18.377 3.66572C18.5148 3.68264 18.6111 3.80636 18.5947 3.94007Z" fill="#05A6A6" stroke="#05A6A6" stroke-width="0.2"/>
<path d="M11.8719 23.4911C11.8418 23.7369 11.6154 23.9131 11.3644 23.8823C11.1133 23.8515 10.9364 23.6257 10.9665 23.38C10.9967 23.1342 11.2231 22.958 11.4741 22.9888C11.7251 23.0196 11.9021 23.2454 11.8719 23.4911Z" fill="#05A6A6" stroke="#05A6A6" stroke-width="0.2"/>
<path d="M10.7867 25.1367C10.76 25.3545 10.5527 25.515 10.3163 25.486C10.08 25.457 9.91765 25.2511 9.94439 25.0333C9.97113 24.8156 10.1784 24.6551 10.4148 24.6841C10.6511 24.7131 10.8134 24.919 10.7867 25.1367Z" fill="#05A6A6" stroke="#05A6A6" stroke-width="0.2"/>
<path d="M9.55735 26.5445C9.53564 26.7213 9.37265 26.8486 9.19129 26.8263C9.00994 26.804 8.88258 26.6411 8.90429 26.4643C8.926 26.2875 9.089 26.1602 9.27035 26.1824C9.4517 26.2047 9.57906 26.3677 9.55735 26.5445Z" fill="#05A6A6" stroke="#05A6A6" stroke-width="0.2"/>
<path d="M8.53417 27.8375C8.51775 27.9713 8.39434 28.068 8.25653 28.0511C8.11873 28.0341 8.02239 27.9104 8.0388 27.7767C8.05522 27.643 8.17863 27.5463 8.31644 27.5632C8.45425 27.5801 8.55059 27.7038 8.53417 27.8375Z" fill="#05A6A6" stroke="#05A6A6" stroke-width="0.2"/>
<path d="M25.1902 15.9397C25.16 16.1855 24.9336 16.3617 24.6826 16.3309C24.4316 16.3001 24.2546 16.0743 24.2848 15.8286C24.3149 15.5829 24.5413 15.4066 24.7923 15.4374C25.0434 15.4682 25.2203 15.694 25.1902 15.9397Z" fill="#05A6A6" stroke="#05A6A6" stroke-width="0.2"/>
<path d="M27.1838 15.6768C27.1571 15.8946 26.9497 16.0551 26.7134 16.0261C26.4771 15.9971 26.3147 15.7912 26.3415 15.5734C26.3682 15.3557 26.5755 15.1952 26.8119 15.2242C27.0482 15.2532 27.2105 15.4591 27.1838 15.6768Z" fill="#05A6A6" stroke="#05A6A6" stroke-width="0.2"/>
<path d="M28.7563 15.3959C28.7346 15.5727 28.5716 15.7 28.3903 15.6777C28.2089 15.6555 28.0816 15.4925 28.1033 15.3157C28.125 15.1389 28.288 15.0116 28.4693 15.0339C28.6507 15.0561 28.778 15.2191 28.7563 15.3959Z" fill="#05A6A6" stroke="#05A6A6" stroke-width="0.2"/>
<path d="M30.2993 15.2551C30.2829 15.3888 30.1595 15.4855 30.0217 15.4686C29.8839 15.4517 29.7875 15.328 29.8039 15.1943C29.8204 15.0605 29.9438 14.9638 30.0816 14.9807C30.2194 14.9976 30.3157 15.1214 30.2993 15.2551Z" fill="#05A6A6" stroke="#05A6A6" stroke-width="0.2"/>
<path d="M17.8675 13.5942C17.8109 14.0553 17.3866 14.3845 16.9178 14.3269C16.449 14.2694 16.117 13.8473 16.1736 13.3862C16.2302 12.9251 16.6545 12.5959 17.1233 12.6534C17.592 12.711 17.9241 13.133 17.8675 13.5942Z" fill="#05A6A6" stroke="#05A6A6" stroke-width="0.2"/>
<path d="M14.709 16.0293C14.6524 16.4904 14.2281 16.8196 13.7593 16.7621C13.2906 16.7045 12.9585 16.2825 13.0152 15.8214C13.0718 15.3602 13.4961 15.031 13.9648 15.0886C14.4336 15.1462 14.7656 15.5682 14.709 16.0293Z" fill="#05A6A6" stroke="#05A6A6" stroke-width="0.2"/>
<path d="M14.7873 20.1561C14.7307 20.6172 14.3064 20.9464 13.8377 20.8889C13.3689 20.8313 13.0368 20.4092 13.0935 19.9481C13.1501 19.487 13.5744 19.1578 14.0431 19.2154C14.5119 19.2729 14.844 19.695 14.7873 20.1561Z" fill="#05A6A6" stroke="#05A6A6" stroke-width="0.2"/>
<path d="M19.9154 20.7857C19.8588 21.2469 19.4345 21.5761 18.9657 21.5185C18.4969 21.4609 18.1649 21.0389 18.2215 20.5778C18.2781 20.1167 18.7024 19.7875 19.1712 19.845C19.64 19.9026 19.972 20.3246 19.9154 20.7857Z" fill="#05A6A6" stroke="#05A6A6" stroke-width="0.2"/>
<path d="M21.1722 16.6646C21.1156 17.1257 20.6913 17.4549 20.2225 17.3973C19.7538 17.3398 19.4217 16.9177 19.4783 16.4566C19.535 15.9955 19.9593 15.6663 20.428 15.7239C20.8968 15.7814 21.2288 16.2035 21.1722 16.6646Z" fill="#05A6A6" stroke="#05A6A6" stroke-width="0.2"/>
</g>
<defs>
<clipPath id="clip0_208_1847">
<rect width="34" height="34" fill="white"/>
</clipPath>
</defs>
</svg>
