<svg width="34" height="34" viewBox="0 0 34 34" fill="none" xmlns="http://www.w3.org/2000/svg">
<g clip-path="url(#clip0_208_1780)">
<rect width="34" height="34" fill="white"/>
<path d="M12.1565 27.684L9.91687 29.1999C8.26869 29.9264 6.58595 28.2165 7.35706 26.5735L9.21407 22.6169C10.2894 20.3257 9.59474 17.595 7.55823 16.0958L4.57466 13.4642L4.24391 13.8392L4.5548 13.4476C3.30796 12.4577 4.22597 10.4599 5.78919 10.7613L10.3198 11.6348C12.5034 12.0558 14.6672 10.8185 15.4119 8.72305L16.6229 5.31524L16.9917 4.36362C17.641 2.68827 20.043 2.80805 20.531 4.52415L20.773 6.49641L20.8706 8.37724L20.8713 8.38947L20.8725 8.40165L20.9633 9.2993C21.1837 11.4783 22.9409 13.1822 25.1257 13.3354L29.1857 13.6201C31.0713 13.7523 31.6124 16.2649 29.9528 17.1628L26.4758 18.8807C24.472 19.7012 23.374 21.8701 23.9013 23.9722L23.9196 24.0452L23.9225 24.0565L23.9258 24.0676L25.1326 28.0804L25.5747 30.883L25.5777 30.9247C25.6499 31.9289 24.5111 32.5468 23.7105 31.9549L21.5752 29.6499L18.2426 25.7308C17.262 24.5775 15.4764 24.6153 14.543 25.7927L12.1565 27.684Z" fill="#03318C" fill-opacity="0.25" stroke="#03318C"/>
<g filter="url(#filter0_d_208_1780)">
<path d="M12.5951 15.1008C12.5597 15.3896 12.2937 15.5964 11.9991 15.5602C11.7046 15.5241 11.4966 15.259 11.532 14.9702C11.5675 14.6814 11.8334 14.4746 12.128 14.5108C12.4226 14.5469 12.6306 14.812 12.5951 15.1008Z" fill="#03318C" stroke="#03318C" stroke-width="0.2"/>
<path d="M18.4449 11.287C18.4094 11.5758 18.1435 11.7826 17.8489 11.7465C17.5544 11.7103 17.3464 11.4452 17.3818 11.1565C17.4173 10.8677 17.6832 10.6608 17.9778 10.697C18.2724 10.7331 18.4804 10.9982 18.4449 11.287Z" fill="#03318C" stroke="#03318C" stroke-width="0.2"/>
<path d="M23.592 16.2408C23.5565 16.5296 23.2906 16.7364 22.996 16.7002C22.7015 16.6641 22.4935 16.399 22.5289 16.1102C22.5644 15.8214 22.8303 15.6146 23.1249 15.6508C23.4195 15.6869 23.6275 15.952 23.592 16.2408Z" fill="#03318C" stroke="#03318C" stroke-width="0.2"/>
<path d="M10.648 14.3075C10.6179 14.5532 10.3915 14.7295 10.1405 14.6986C9.88947 14.6678 9.71249 14.442 9.74266 14.1963C9.77283 13.9506 9.99918 13.7743 10.2502 13.8051C10.5012 13.836 10.6782 14.0617 10.648 14.3075Z" fill="#03318C" stroke="#03318C" stroke-width="0.2"/>
<path d="M8.78993 13.5716C8.76319 13.7893 8.55589 13.9498 8.31955 13.9208C8.08321 13.8918 7.92089 13.6859 7.94763 13.4681C7.97437 13.2504 8.18167 13.0899 8.41801 13.1189C8.65435 13.1479 8.81667 13.3538 8.78993 13.5716Z" fill="#03318C" stroke="#03318C" stroke-width="0.2"/>
<ellipse cx="6.67387" cy="12.7238" rx="0.428984" ry="0.424363" transform="rotate(7 6.67387 12.7238)" fill="#03318C" stroke="#03318C" stroke-width="0.2"/>
<path d="M5.39696 12.1405C5.38054 12.2742 5.25713 12.371 5.11933 12.354C4.98152 12.3371 4.88518 12.2134 4.9016 12.0797C4.91802 11.946 5.04143 11.8492 5.17923 11.8662C5.31704 11.8831 5.41338 12.0068 5.39696 12.1405Z" fill="#03318C" stroke="#03318C" stroke-width="0.2"/>
<path d="M21.0548 22.964C21.0194 23.2528 20.7534 23.4597 20.4589 23.4235C20.1643 23.3873 19.9563 23.1223 19.9918 22.8335C20.0272 22.5447 20.2931 22.3379 20.5877 22.374C20.8823 22.4102 21.0903 22.6752 21.0548 22.964Z" fill="#03318C" stroke="#03318C" stroke-width="0.2"/>
<path d="M21.9655 24.6735C21.9353 24.9192 21.709 25.0955 21.4579 25.0647C21.2069 25.0338 21.0299 24.808 21.0601 24.5623C21.0903 24.3166 21.3166 24.1403 21.5677 24.1712C21.8187 24.202 21.9957 24.4278 21.9655 24.6735Z" fill="#03318C" stroke="#03318C" stroke-width="0.2"/>
<path d="M22.8741 26.3902C22.8474 26.6079 22.6401 26.7684 22.4037 26.7394C22.1674 26.7104 22.0051 26.5045 22.0318 26.2867C22.0585 26.069 22.2658 25.9085 22.5022 25.9375C22.7385 25.9665 22.9008 26.1724 22.8741 26.3902Z" fill="#03318C" stroke="#03318C" stroke-width="0.2"/>
<path d="M23.6069 28.0518C23.5851 28.2286 23.4221 28.356 23.2408 28.3337C23.0594 28.3114 22.9321 28.1485 22.9538 27.9717C22.9755 27.7949 23.1385 27.6675 23.3198 27.6898C23.5012 27.7121 23.6286 27.875 23.6069 28.0518Z" fill="#03318C" stroke="#03318C" stroke-width="0.2"/>
<path d="M24.1307 29.5213C24.1143 29.655 23.9909 29.7517 23.8531 29.7348C23.7153 29.7179 23.6189 29.5941 23.6354 29.4604C23.6518 29.3267 23.7752 29.23 23.913 29.2469C24.0508 29.2638 24.1471 29.3875 24.1307 29.5213Z" fill="#03318C" stroke="#03318C" stroke-width="0.2"/>
<path d="M13.7648 21.8345C13.7293 22.1233 13.4634 22.3301 13.1688 22.2939C12.8742 22.2578 12.6663 21.9927 12.7017 21.7039C12.7372 21.4151 13.0031 21.2083 13.2977 21.2445C13.5923 21.2806 13.8003 21.5457 13.7648 21.8345Z" fill="#03318C" stroke="#03318C" stroke-width="0.2"/>
<path d="M18.6174 9.22995C18.5872 9.47567 18.3609 9.65194 18.1099 9.62112C17.8588 9.59029 17.6819 9.36451 17.712 9.11879C17.7422 8.87307 17.9685 8.6968 18.2196 8.72763C18.4706 8.75845 18.6476 8.98423 18.6174 9.22995Z" fill="#03318C" stroke="#03318C" stroke-width="0.2"/>
<path d="M18.7975 7.24166C18.7708 7.45943 18.5635 7.61991 18.3271 7.59089C18.0908 7.56188 17.9285 7.35601 17.9552 7.13824C17.9819 6.92047 18.1892 6.75999 18.4256 6.78901C18.6619 6.81803 18.8242 7.02389 18.7975 7.24166Z" fill="#03318C" stroke="#03318C" stroke-width="0.2"/>
<path d="M18.9546 5.44051C18.9329 5.6173 18.7699 5.74463 18.5886 5.72236C18.4072 5.70009 18.2799 5.53711 18.3016 5.36032C18.3233 5.18353 18.4863 5.0562 18.6676 5.07847C18.849 5.10074 18.9763 5.26371 18.9546 5.44051Z" fill="#03318C" stroke="#03318C" stroke-width="0.2"/>
<path d="M19.0588 3.94007C19.0424 4.07379 18.919 4.17053 18.7812 4.15361C18.6434 4.13669 18.547 4.01297 18.5635 3.87925C18.5799 3.74554 18.7033 3.6488 18.8411 3.66572C18.9789 3.68264 19.0752 3.80636 19.0588 3.94007Z" fill="#03318C" stroke="#03318C" stroke-width="0.2"/>
<path d="M12.336 23.4911C12.3059 23.7368 12.0795 23.9131 11.8285 23.8823C11.5775 23.8515 11.4005 23.6257 11.4307 23.38C11.4608 23.1342 11.6872 22.958 11.9382 22.9888C12.1892 23.0196 12.3662 23.2454 12.336 23.4911Z" fill="#03318C" stroke="#03318C" stroke-width="0.2"/>
<path d="M11.2508 25.1367C11.2241 25.3545 11.0168 25.515 10.7804 25.486C10.5441 25.457 10.3818 25.2511 10.4085 25.0333C10.4352 24.8156 10.6425 24.6551 10.8789 24.6841C11.1152 24.7131 11.2775 24.919 11.2508 25.1367Z" fill="#03318C" stroke="#03318C" stroke-width="0.2"/>
<path d="M10.0215 26.5445C9.99976 26.7213 9.83676 26.8486 9.6554 26.8263C9.47405 26.804 9.34669 26.6411 9.3684 26.4643C9.39011 26.2875 9.55311 26.1602 9.73446 26.1824C9.91582 26.2047 10.0432 26.3677 10.0215 26.5445Z" fill="#03318C" stroke="#03318C" stroke-width="0.2"/>
<path d="M8.99828 27.8375C8.98186 27.9713 8.85845 28.068 8.72065 28.0511C8.58284 28.0341 8.4865 27.9104 8.50292 27.7767C8.51933 27.643 8.64274 27.5463 8.78055 27.5632C8.91836 27.5801 9.0147 27.7038 8.99828 27.8375Z" fill="#03318C" stroke="#03318C" stroke-width="0.2"/>
<path d="M25.6543 15.9397C25.6241 16.1855 25.3978 16.3617 25.1467 16.3309C24.8957 16.3001 24.7187 16.0743 24.7489 15.8286C24.7791 15.5828 25.0054 15.4066 25.2564 15.4374C25.5075 15.4682 25.6844 15.694 25.6543 15.9397Z" fill="#03318C" stroke="#03318C" stroke-width="0.2"/>
<path d="M27.6479 15.6768C27.6212 15.8946 27.4139 16.0551 27.1775 16.0261C26.9412 15.9971 26.7789 15.7912 26.8056 15.5734C26.8323 15.3557 27.0396 15.1952 27.276 15.2242C27.5123 15.2532 27.6746 15.4591 27.6479 15.6768Z" fill="#03318C" stroke="#03318C" stroke-width="0.2"/>
<path d="M29.2204 15.3959C29.1987 15.5727 29.0357 15.7 28.8544 15.6777C28.673 15.6555 28.5457 15.4925 28.5674 15.3157C28.5891 15.1389 28.7521 15.0116 28.9334 15.0339C29.1148 15.0561 29.2421 15.2191 29.2204 15.3959Z" fill="#03318C" stroke="#03318C" stroke-width="0.2"/>
<path d="M30.7634 15.2551C30.747 15.3888 30.6236 15.4855 30.4858 15.4686C30.348 15.4517 30.2516 15.328 30.2681 15.1943C30.2845 15.0605 30.4079 14.9638 30.5457 14.9807C30.6835 14.9976 30.7798 15.1214 30.7634 15.2551Z" fill="#03318C" stroke="#03318C" stroke-width="0.2"/>
<path d="M18.3316 13.5941C18.275 14.0553 17.8507 14.3845 17.3819 14.3269C16.9131 14.2693 16.5811 13.8473 16.6377 13.3862C16.6943 12.9251 17.1186 12.5959 17.5874 12.6534C18.0562 12.711 18.3882 13.133 18.3316 13.5941Z" fill="#03318C" stroke="#03318C" stroke-width="0.2"/>
<path d="M15.1731 16.0293C15.1165 16.4904 14.6922 16.8196 14.2235 16.7621C13.7547 16.7045 13.4226 16.2825 13.4793 15.8214C13.5359 15.3602 13.9602 15.031 14.4289 15.0886C14.8977 15.1462 15.2298 15.5682 15.1731 16.0293Z" fill="#03318C" stroke="#03318C" stroke-width="0.2"/>
<path d="M15.2514 20.1561C15.1948 20.6172 14.7705 20.9464 14.3018 20.8889C13.833 20.8313 13.501 20.4092 13.5576 19.9481C13.6142 19.487 14.0385 19.1578 14.5072 19.2154C14.976 19.2729 15.3081 19.695 15.2514 20.1561Z" fill="#03318C" stroke="#03318C" stroke-width="0.2"/>
<path d="M20.3795 20.7857C20.3229 21.2469 19.8986 21.5761 19.4298 21.5185C18.9611 21.4609 18.629 21.0389 18.6856 20.5778C18.7422 20.1167 19.1665 19.7875 19.6353 19.845C20.1041 19.9026 20.4361 20.3246 20.3795 20.7857Z" fill="#03318C" stroke="#03318C" stroke-width="0.2"/>
<path d="M21.6363 16.6646C21.5797 17.1257 21.1554 17.4549 20.6867 17.3973C20.2179 17.3398 19.8858 16.9177 19.9425 16.4566C19.9991 15.9955 20.4234 15.6663 20.8921 15.7239C21.3609 15.7814 21.693 16.2035 21.6363 16.6646Z" fill="#03318C" stroke="#03318C" stroke-width="0.2"/>
</g>
</g>
<defs>
<filter id="filter0_d_208_1780" x="1.79974" y="0.563797" width="34.0655" height="34.2729" filterUnits="userSpaceOnUse" color-interpolation-filters="sRGB">
<feFlood flood-opacity="0" result="BackgroundImageFix"/>
<feColorMatrix in="SourceAlpha" type="matrix" values="0 0 0 0 0 0 0 0 0 0 0 0 0 0 0 0 0 0 127 0" result="hardAlpha"/>
<feOffset dx="1" dy="1"/>
<feGaussianBlur stdDeviation="2"/>
<feComposite in2="hardAlpha" operator="out"/>
<feColorMatrix type="matrix" values="0 0 0 0 0.641042 0 0 0 0 0.737163 0 0 0 0 0.85 0 0 0 1 0"/>
<feBlend mode="normal" in2="BackgroundImageFix" result="effect1_dropShadow_208_1780"/>
<feBlend mode="normal" in="SourceGraphic" in2="effect1_dropShadow_208_1780" result="shape"/>
</filter>
<clipPath id="clip0_208_1780">
<rect width="34" height="34" fill="white"/>
</clipPath>
</defs>
</svg>
