<svg width="19" height="18" viewBox="0 0 19 18" fill="none" xmlns="http://www.w3.org/2000/svg">
<path d="M17.4062 1.95312H13.7969V0.578125C13.7969 0.483594 13.7195 0.40625 13.625 0.40625H12.4219C12.3273 0.40625 12.25 0.483594 12.25 0.578125V1.95312H6.75V0.578125C6.75 0.483594 6.67266 0.40625 6.57812 0.40625H5.375C5.28047 0.40625 5.20312 0.483594 5.20312 0.578125V1.95312H1.59375C1.21348 1.95312 0.90625 2.26035 0.90625 2.64062V16.9062C0.90625 17.2865 1.21348 17.5938 1.59375 17.5938H17.4062C17.7865 17.5938 18.0938 17.2865 18.0938 16.9062V2.64062C18.0938 2.26035 17.7865 1.95312 17.4062 1.95312ZM16.5469 16.0469H2.45312V7.88281H16.5469V16.0469ZM2.45312 6.42188V3.5H5.20312V4.53125C5.20312 4.62578 5.28047 4.70312 5.375 4.70312H6.57812C6.67266 4.70312 6.75 4.62578 6.75 4.53125V3.5H12.25V4.53125C12.25 4.62578 12.3273 4.70312 12.4219 4.70312H13.625C13.7195 4.70312 13.7969 4.62578 13.7969 4.53125V3.5H16.5469V6.42188H2.45312Z" fill="#848588"/>
</svg>
