<svg width="28" height="28" viewBox="0 0 28 28" fill="none" xmlns="http://www.w3.org/2000/svg">
<ellipse cx="14" cy="13.9673" rx="14" ry="13.9673" fill="#071359"/>
<path d="M21.3333 8.71731H18.5L17.825 6.82564C17.7784 6.6962 17.6929 6.58431 17.5803 6.50526C17.4677 6.42621 17.3334 6.38385 17.1958 6.38397H10.8042C10.5229 6.38397 10.2708 6.56106 10.1771 6.82564L9.5 8.71731H6.66667C5.74583 8.71731 5 9.46314 5 10.384V19.884C5 20.8048 5.74583 21.5506 6.66667 21.5506H21.3333C22.2542 21.5506 23 20.8048 23 19.884V10.384C23 9.46314 22.2542 8.71731 21.3333 8.71731ZM14 18.2173C12.1583 18.2173 10.6667 16.7256 10.6667 14.884C10.6667 13.0423 12.1583 11.5506 14 11.5506C15.8417 11.5506 17.3333 13.0423 17.3333 14.884C17.3333 16.7256 15.8417 18.2173 14 18.2173ZM12 14.884C12 15.4144 12.2107 15.9231 12.5858 16.2982C12.9609 16.6733 13.4696 16.884 14 16.884C14.5304 16.884 15.0391 16.6733 15.4142 16.2982C15.7893 15.9231 16 15.4144 16 14.884C16 14.3535 15.7893 13.8448 15.4142 13.4698C15.0391 13.0947 14.5304 12.884 14 12.884C13.4696 12.884 12.9609 13.0947 12.5858 13.4698C12.2107 13.8448 12 14.3535 12 14.884Z" fill="white"/>
</svg>
