<svg width="13" height="20" viewBox="0 0 13 20" fill="none" xmlns="http://www.w3.org/2000/svg">
<path d="M6.35657 2.16565L7.46872 2.41819L8.22704 2.73857L8.96849 3.1767L9.91215 4.08666L10.5693 5.09773L10.9064 5.92343L11.0428 6.9682V7.92315V8.72378V9.82464V10.0999" stroke="#011F26" stroke-width="1.5" stroke-linecap="round" stroke-linejoin="round"/>
<mask id="path-2-inside-1_64_6381" fill="white">
<path d="M8.69958 8.37603C8.69958 7.18947 8.29398 6.05151 7.572 5.21248C6.85002 4.37346 5.87081 3.9021 4.84978 3.9021C3.82874 3.9021 2.84953 4.37346 2.12755 5.21248C1.40557 6.05151 0.999966 7.18947 0.999966 8.37603L4.84978 8.37603L8.69958 8.37603Z"/>
</mask>
<path d="M8.69958 8.37603C8.69958 7.18947 8.29398 6.05151 7.572 5.21248C6.85002 4.37346 5.87081 3.9021 4.84978 3.9021C3.82874 3.9021 2.84953 4.37346 2.12755 5.21248C1.40557 6.05151 0.999966 7.18947 0.999966 8.37603L4.84978 8.37603L8.69958 8.37603Z" stroke="#011F26" stroke-width="2" mask="url(#path-2-inside-1_64_6381)"/>
<rect x="1.5" y="8.81421" width="6.69962" height="5.45966" stroke="#011F26"/>
<rect x="1.5" y="15.2739" width="6.71634" height="4.22612" stroke="#011F26"/>
<ellipse cx="11.0428" cy="11.4544" rx="1.50358" ry="1.57041" fill="#011F26"/>
<path d="M1.65356 1.09644L1.65356 3.23496" stroke="#011F26" stroke-width="1.5" stroke-linecap="round"/>
<path d="M5.13961 2.97201L5.10112 2.96598H5.06216H4.67247C4.51261 2.96598 4.35312 2.98131 4.19619 3.01177L3.90356 3.06856L3.88458 3.07224L3.86595 3.07738L3.823 3.08921L3.82301 2.68019C3.82302 2.23019 3.8578 1.92776 3.95816 1.75232C4.09102 1.52008 4.1861 1.43285 4.37062 1.29925C4.50601 1.20122 4.70978 1.14307 4.86318 1.14307C5.03545 1.14307 5.28588 1.21055 5.40838 1.29925C5.53805 1.39314 5.58633 1.43716 5.62489 1.48249C5.66918 1.53456 5.71757 1.60825 5.82084 1.78876C5.91832 1.95916 5.93446 2.15655 5.93446 2.68018V2.68306V2.68594V2.68881V2.69166V2.69451V2.69735V2.70019V2.70301V2.70583V2.70863V2.71143V2.71422V2.717V2.71977V2.72254V2.72529V2.72804V2.73078V2.73351V2.73623V2.73895V2.74165V2.74435V2.74704V2.74972V2.75239V2.75506V2.75772V2.76037V2.76301V2.76564V2.76827V2.77089V2.7735V2.7761V2.7787V2.78128V2.78386V2.78644V2.789V2.79156V2.79411V2.79665V2.79919V2.80171V2.80423V2.80675V2.80925V2.81175V2.81424V2.81672V2.8192V2.82167V2.82413V2.82659V2.82904V2.83148V2.83391V2.83634V2.83876V2.84117V2.84358V2.84598V2.84837V2.85076V2.85314V2.85551V2.85788V2.86024V2.86259V2.86494V2.86728V2.86961V2.87194V2.87426V2.87658V2.87888V2.88119V2.88348V2.88577V2.88806V2.89033V2.8926V2.89487V2.89713V2.89938V2.90163V2.90387V2.9061V2.90833V2.91056V2.91277V2.91499V2.91719V2.91939V2.92159V2.92377V2.92596V2.92814V2.93031V2.93247V2.93464V2.93679V2.93894V2.94109V2.94323V2.94536V2.94749V2.94961V2.95173V2.95384V2.95595V2.95805V2.96015V2.96224V2.96433V2.96642V2.96849V2.97057V2.97263V2.9747V2.97676V2.97881V2.98086V2.9829V2.98494V2.98698V2.98901V2.99103V2.99305V2.99507V2.99708V2.99909V3.00109V3.00309V3.00508V3.00707V3.00906V3.01104V3.01302V3.01499V3.01696V3.01893V3.02089V3.02284V3.0248V3.02674V3.02869V3.03063V3.03257V3.0345V3.03643V3.03835V3.04028V3.04219V3.04411V3.04602V3.04793V3.04983V3.05173V3.05363V3.05552V3.05741V3.0593V3.06118V3.06306V3.06493V3.06681V3.06868V3.07054V3.07241V3.07427V3.07612V3.07798V3.07983V3.08167V3.08352V3.08536V3.0872V3.08904V3.09087V3.0927V3.09453V3.09635V3.09817V3.09999V3.10181V3.10363V3.10544V3.10725V3.10905V3.11086V3.11153L5.77469 3.0732L5.75524 3.06853L5.73548 3.06543L5.13961 2.97201Z" fill="#011F26" stroke="#011F26"/>
<path d="M2.15088 2.19434H3.32302" stroke="#011F26" stroke-width="1.5" stroke-linecap="round"/>
</svg>
