<svg width="21" height="18" viewBox="0 0 21 18" fill="none" xmlns="http://www.w3.org/2000/svg">
<path d="M2.57517 0.986084C1.40017 0.986084 0.432312 2.13783 0.432312 3.53608V15.4361C0.432312 16.8343 1.40017 17.9861 2.57517 17.9861H18.2895C19.4645 17.9861 20.4323 16.8343 20.4323 15.4361V3.53608C20.4323 2.13783 19.4645 0.986084 18.2895 0.986084H2.57517ZM2.57517 2.68608H18.2895C18.6937 2.68608 19.0037 3.05498 19.0037 3.53608V15.4361C19.0037 15.9172 18.6937 16.2861 18.2895 16.2861H2.57517C2.17088 16.2861 1.86088 15.9172 1.86088 15.4361V3.53608C1.86088 3.05498 2.17088 2.68608 2.57517 2.68608ZM6.86088 4.38608C5.28946 4.38608 4.00374 5.91608 4.00374 7.78608C4.00374 8.73213 4.34446 9.58553 4.87445 10.2035C4.38826 10.5939 3.98967 11.1199 3.71341 11.7356C3.43715 12.3513 3.2916 13.0381 3.28945 13.7361H4.71803C4.71803 12.3183 5.66946 11.1861 6.86088 11.1861C8.05231 11.1861 9.00374 12.3183 9.00374 13.7361H10.4323C10.4302 13.0381 10.2846 12.3513 10.0084 11.7356C9.7321 11.1199 9.33351 10.5939 8.84731 10.2035C9.37731 9.58553 9.71803 8.73298 9.71803 7.78608C9.71803 5.91608 8.43231 4.38608 6.86088 4.38608ZM11.8609 5.23608V6.93608H17.5752V5.23608H11.8609ZM6.86088 6.08608C7.65874 6.08608 8.28945 6.83663 8.28945 7.78608C8.28945 8.73553 7.65874 9.48608 6.86088 9.48608C6.06303 9.48608 5.43231 8.73553 5.43231 7.78608C5.43231 6.83663 6.06303 6.08608 6.86088 6.08608ZM11.8609 8.63608V10.3361H17.5752V8.63608H11.8609ZM11.8609 12.0361V13.7361H15.4323V12.0361H11.8609Z" fill="#011F26"/>
</svg>
