<svg width="21" height="21" viewBox="0 0 21 21" fill="none" xmlns="http://www.w3.org/2000/svg">
<path d="M14.15 1.59125C14.8502 0.907263 15.7917 0.526865 16.7704 0.532564C17.7492 0.538264 18.6862 0.929602 19.3783 1.6217C20.0704 2.31379 20.4618 3.25084 20.4675 4.2296C20.4732 5.20835 20.0928 6.14989 19.4088 6.85L18.5725 7.68625L13.3138 2.4275L14.1513 1.59125H14.15ZM12.43 3.3125L2.43129 13.3113C2.02214 13.7209 1.73815 14.2386 1.61254 14.8038L0.515041 19.7413C0.492086 19.844 0.495451 19.9509 0.524823 20.0519C0.554196 20.153 0.608624 20.2451 0.683058 20.3195C0.757492 20.3939 0.849521 20.4483 0.950607 20.4777C1.05169 20.5071 1.15856 20.5105 1.26129 20.4875L6.16879 19.3963C6.75309 19.2662 7.28817 18.9722 7.71129 18.5487L17.6888 8.57125L12.43 3.3125Z" fill="#03318C"/>
</svg>
