<svg width="35" height="35" viewBox="0 0 35 35" fill="none" xmlns="http://www.w3.org/2000/svg">
<path d="M30.625 6.5625H4.375C3.79484 6.5625 3.23844 6.79297 2.8282 7.2032C2.41797 7.61344 2.1875 8.16984 2.1875 8.75V26.25C2.1875 26.8302 2.41797 27.3866 2.8282 27.7968C3.23844 28.207 3.79484 28.4375 4.375 28.4375H30.625C31.2052 28.4375 31.7616 28.207 32.1718 27.7968C32.582 27.3866 32.8125 26.8302 32.8125 26.25V8.75C32.8125 8.16984 32.582 7.61344 32.1718 7.2032C31.7616 6.79297 31.2052 6.5625 30.625 6.5625V6.5625ZM28.2187 8.75L17.5 16.1656L6.78125 8.75H28.2187ZM4.375 26.25V9.74531L16.8766 18.3969C17.0597 18.5239 17.2772 18.592 17.5 18.592C17.7228 18.592 17.9403 18.5239 18.1234 18.3969L30.625 9.74531V26.25H4.375Z" fill="#848588"/>
</svg>
