<svg width="15" height="16" viewBox="0 0 15 16" fill="none" xmlns="http://www.w3.org/2000/svg">
<path d="M14.0508 12.3771L11.6753 10.0016L9.84809 9.24669C10.4565 8.38151 10.7824 7.34934 10.7812 6.29166C10.7812 3.44849 8.46817 1.13541 5.625 1.13541C2.78183 1.13541 0.46875 3.44849 0.46875 6.29166C0.46875 9.13484 2.78183 11.4479 5.625 11.4479C6.69188 11.4491 7.73258 11.1176 8.60212 10.4994L9.35505 12.3216L11.7305 14.6973C11.8828 14.8496 12.0637 14.9705 12.2627 15.0529C12.4618 15.1354 12.6751 15.1778 12.8906 15.1778C13.106 15.1778 13.3194 15.1354 13.5184 15.053C13.7175 14.9705 13.8984 14.8497 14.0507 14.6973C14.2031 14.545 14.3239 14.3641 14.4064 14.1651C14.4888 13.966 14.5313 13.7527 14.5313 13.5372C14.5313 13.3218 14.4889 13.1084 14.4064 12.9094C14.324 12.7103 14.2031 12.5294 14.0508 12.3771ZM1.40625 6.29166C1.40625 3.96549 3.29883 2.07291 5.625 2.07291C7.95117 2.07291 9.84375 3.96549 9.84375 6.29166C9.84375 8.61784 7.95117 10.5104 5.625 10.5104C3.29883 10.5104 1.40625 8.61784 1.40625 6.29166ZM13.3878 14.0344C13.2559 14.166 13.077 14.24 12.8906 14.24C12.7042 14.24 12.5254 14.166 12.3934 14.0344L10.1501 11.791L9.45009 10.0967L11.1445 10.7967L13.3879 13.04C13.5195 13.172 13.5935 13.3508 13.5935 13.5372C13.5934 13.7236 13.5195 13.9024 13.3878 14.0344Z" fill="white"/>
</svg>
