<svg width="34" height="34" viewBox="0 0 34 34" fill="none" xmlns="http://www.w3.org/2000/svg">
<rect width="34" height="34" fill="white"/>
<path d="M4 20.8746V12.5331H6.6521L7.40784 11.2698L8.0964 10.2789L9.15442 9.2377L9.99413 8.54914L10.8506 8.02853L11.8858 7.60479V4.97071H20.8249V7.60479L21.8556 8.11462L22.7054 8.68109L23.6684 9.50247L25.5649 8.68109L26.8123 8.11462L27.6903 7.42323L28.2979 6.41521L28.7949 4.77567V2H31.4007V4.54586L31.2307 5.99036L30.8059 7.42323L30.0695 8.68109L29.0215 9.67241L27.6903 10.5504L26.2458 11.1736L25.3678 11.4285L25.9066 12.5331H28.4833V20.8746H25.9066L25.1695 22.248L24.1498 23.466L22.832 24.5898L25.7076 26.2417L27.999 27.8779L26.8123 28.8757L24.603 29.8671L22.3938 30.4619L20.0713 30.8584L18.0886 31H15.3979L13.0187 30.8584L11.4326 30.6601L9.63679 30.2636L8.0621 29.8671L6.58928 29.3572L5.34305 28.6775L4.42704 27.8779L9.63679 24.5898L8.37366 23.466L7.52396 22.418L6.7309 20.8746H4Z" stroke="#03318C" stroke-linecap="round" stroke-linejoin="round"/>
<path d="M21.8283 16.6546C21.8283 19.5536 19.3663 21.9408 16.2825 21.9408C13.1987 21.9408 10.7366 19.5536 10.7366 16.6546C10.7366 13.7555 13.1987 11.3683 16.2825 11.3683C19.3663 11.3683 21.8283 13.7555 21.8283 16.6546Z" stroke="#03318C"/>
<path d="M24.494 16.6448C24.494 20.9661 20.8381 24.504 16.2846 24.504C11.7312 24.504 8.07526 20.9661 8.07526 16.6448C8.07526 12.3234 11.7312 8.78561 16.2846 8.78561C20.8381 8.78561 24.494 12.3234 24.494 16.6448Z" stroke="#03318C"/>
</svg>
