<svg width="34" height="34" viewBox="0 0 34 34" fill="none" xmlns="http://www.w3.org/2000/svg">
<g clip-path="url(#clip0_208_2197)">
<rect width="34" height="34" fill="white"/>
<path d="M24.1263 7.57279L25.5279 8.65967L26.3861 9.60962L27.1432 10.7144L27.8752 12.6172L28.1369 14.4741L28.0693 15.8594L27.5749 17.4216L26.9473 18.7676L26.4211 19.896L25.6976 21.4476L25.5167 21.8355" stroke="#03318C" stroke-width="1.5" stroke-linecap="round" stroke-linejoin="round"/>
<mask id="path-2-inside-1_208_2197" fill="white">
<path d="M23.3472 17.8658C24.127 16.1935 24.3033 14.323 23.8371 12.6659C23.371 11.0089 22.3006 9.70096 20.8615 9.0299C19.4225 8.35885 17.7325 8.37963 16.1635 9.08767C14.5945 9.79572 13.2749 11.133 12.4951 12.8054L17.9211 15.3356L23.3472 17.8658Z"/>
</mask>
<path d="M23.3472 17.8658C24.127 16.1935 24.3033 14.323 23.8371 12.6659C23.371 11.0089 22.3006 9.70096 20.8615 9.0299C19.4225 8.35885 17.7325 8.37963 16.1635 9.08767C14.5945 9.79572 13.2749 11.133 12.4951 12.8054L17.9211 15.3356L23.3472 17.8658Z" stroke="#03318C" stroke-width="2" mask="url(#path-2-inside-1_208_2197)"/>
<mask id="path-3-inside-2_208_2197" fill="white">
<path d="M7.84093 22.7862C7.04912 24.4843 6.86141 26.3794 7.3191 28.0546C7.77679 29.7298 8.84238 31.0479 10.2815 31.7189C11.7205 32.39 13.4152 32.359 14.9927 31.6328C16.5702 30.9066 17.9012 29.5447 18.6931 27.8467L13.267 25.3165L7.84093 22.7862Z"/>
</mask>
<path d="M7.84093 22.7862C7.04912 24.4843 6.86141 26.3794 7.3191 28.0546C7.77679 29.7298 8.84238 31.0479 10.2815 31.7189C11.7205 32.39 13.4152 32.359 14.9927 31.6328C16.5702 30.9066 17.9012 29.5447 18.6931 27.8467L13.267 25.3165L7.84093 22.7862Z" stroke="#03318C" stroke-width="2" mask="url(#path-3-inside-2_208_2197)"/>
<rect x="12.7478" y="13.4733" width="10.96" height="10.1" transform="rotate(25 12.7478 13.4733)" stroke="#03318C"/>
<ellipse cx="24.6264" cy="23.7448" rx="2.33828" ry="2.44221" transform="rotate(25 24.6264 23.7448)" fill="#03318C"/>
<path d="M18.2006 2.9748L16.7951 5.98892" stroke="#03318C" stroke-width="1.5" stroke-linecap="round"/>
<path d="M21.7264 8.13988L21.6941 8.11815L21.6588 8.10169L21.0128 7.80046C20.8679 7.7329 20.7169 7.67939 20.5618 7.64067L20.0085 7.50253L19.9897 7.49785L19.9707 7.49463L19.543 7.42238L19.9659 6.51559C20.2584 5.88834 20.5324 5.41685 20.8576 5.18722C21.2363 4.91984 21.4665 4.84671 21.8443 4.77391C22.1626 4.71258 22.5473 4.7755 22.811 4.8985C23.0919 5.02947 23.4522 5.32421 23.6021 5.59355C23.7263 5.81684 23.7784 5.93374 23.8119 6.05545C23.8477 6.18567 23.8689 6.34494 23.8957 6.66643C23.9284 7.05736 23.7819 7.41526 23.445 8.13791L23.4431 8.14197L23.4412 8.14603L23.4393 8.15007L23.4374 8.15409L23.4355 8.15811L23.4337 8.16212L23.4318 8.16611L23.43 8.17009L23.4281 8.17405L23.4263 8.17801L23.4244 8.18195L23.4226 8.18588L23.4208 8.1898L23.4189 8.19371L23.4171 8.19761L23.4153 8.20149L23.4135 8.20536L23.4117 8.20922L23.4099 8.21307L23.4081 8.21691L23.4063 8.22073L23.4046 8.22455L23.4028 8.22835L23.401 8.23214L23.3993 8.23592L23.3975 8.23969L23.3957 8.24345L23.394 8.24719L23.3923 8.25093L23.3905 8.25465L23.3888 8.25836L23.3871 8.26207L23.3853 8.26576L23.3836 8.26944L23.3819 8.2731L23.3802 8.27676L23.3785 8.28041L23.3768 8.28405L23.3751 8.28767L23.3734 8.29129L23.3718 8.29489L23.3701 8.29848L23.3684 8.30207L23.3667 8.30564L23.3651 8.3092L23.3634 8.31275L23.3618 8.31629L23.3601 8.31983L23.3585 8.32335L23.3568 8.32686L23.3552 8.33036L23.3536 8.33385L23.352 8.33733L23.3503 8.3408L23.3487 8.34426L23.3471 8.34771L23.3455 8.35115L23.3439 8.35458L23.3423 8.358L23.3407 8.36142L23.3391 8.36482L23.3376 8.36821L23.336 8.37159L23.3344 8.37497L23.3328 8.37833L23.3313 8.38168L23.3297 8.38503L23.3282 8.38836L23.3266 8.39169L23.3251 8.39501L23.3235 8.39831L23.322 8.40161L23.3205 8.4049L23.3189 8.40818L23.3174 8.41145L23.3159 8.41472L23.3144 8.41797L23.3128 8.42121L23.3113 8.42445L23.3098 8.42768L23.3083 8.4309L23.3068 8.43411L23.3053 8.43731L23.3039 8.4405L23.3024 8.44368L23.3009 8.44686L23.2994 8.45002L23.2979 8.45318L23.2965 8.45633L23.295 8.45948L23.2935 8.46261L23.2921 8.46573L23.2906 8.46885L23.2892 8.47196L23.2877 8.47506L23.2863 8.47815L23.2849 8.48124L23.2834 8.48432L23.282 8.48739L23.2806 8.49045L23.2791 8.4935L23.2777 8.49655L23.2763 8.49959L23.2749 8.50262L23.2735 8.50564L23.2721 8.50865L23.2707 8.51166L23.2693 8.51466L23.2679 8.51766L23.2665 8.52064L23.2651 8.52362L23.2637 8.52659L23.2623 8.52955L23.261 8.53251L23.2596 8.53546L23.2582 8.5384L23.2568 8.54134L23.2555 8.54427L23.2541 8.54719L23.2527 8.5501L23.2514 8.55301L23.25 8.55591L23.2487 8.55881L23.2473 8.56169L23.246 8.56458L23.2447 8.56745L23.2433 8.57032L23.242 8.57318L23.2407 8.57603L23.2393 8.57888L23.238 8.58172L23.2367 8.58456L23.2354 8.58739L23.234 8.59021L23.2327 8.59303L23.2314 8.59584L23.2301 8.59865L23.2288 8.60144L23.2275 8.60424L23.2262 8.60702L23.2249 8.6098L23.2236 8.61258L23.2223 8.61535L23.221 8.61811L23.2197 8.62087L23.2185 8.62362L23.2172 8.62637L23.2159 8.62911L23.2146 8.63185L23.2134 8.63458L23.2121 8.6373L23.2108 8.64002L23.2096 8.64273L23.2083 8.64544L23.207 8.64814L23.2058 8.65084L23.2045 8.65354L23.2033 8.65622L23.202 8.65891L23.2008 8.66158L23.1995 8.66426L23.1983 8.66693L23.197 8.66959L23.1958 8.67225L23.1946 8.6749L23.1933 8.67755L23.1921 8.68019L23.1909 8.68283L23.1896 8.68547L23.1884 8.6881L23.1872 8.69072L23.186 8.69335L23.1847 8.69596L23.1835 8.69858L23.1823 8.70119L23.1811 8.70379L23.1799 8.70639L23.1787 8.70899L23.1774 8.71158L23.1762 8.71417L23.175 8.71675L23.1738 8.71933L23.1726 8.7219L23.1714 8.72448L23.1702 8.72705L23.169 8.72961L23.1678 8.73217L23.1667 8.73473L23.1655 8.73728L23.1643 8.73983L23.1631 8.74238L23.1619 8.74492L23.1607 8.74746L23.1595 8.75L23.1584 8.75253L23.1572 8.75506L23.156 8.75758L23.1548 8.76011L23.1536 8.76263L23.1525 8.76514L23.1513 8.76766L23.1501 8.77017L23.149 8.77267L23.1478 8.77518L23.1466 8.77768L23.1455 8.78018L23.1443 8.78268L23.1431 8.78517L23.142 8.78766L23.1408 8.79015L23.1397 8.79263L23.1385 8.79512L23.1373 8.7976L23.1362 8.80008L23.135 8.80255L23.1339 8.80502L23.1327 8.80749L23.1316 8.80996L23.1304 8.81243L23.1293 8.81489L23.1281 8.81736L23.127 8.81982L23.1258 8.82227L23.1247 8.82473L23.1235 8.82719L23.1224 8.82964L23.1213 8.83209L23.1201 8.83454L23.119 8.83698L23.1178 8.83943L23.1167 8.84187L23.1156 8.84431L23.1144 8.84675L23.1133 8.84919L23.1121 8.85163L23.111 8.85407L23.1099 8.8565L23.1087 8.85894L23.1076 8.86137L23.1065 8.8638L23.1053 8.86623L23.1042 8.86866L23.1031 8.87108L23.1019 8.87351L23.1008 8.87594L23.0997 8.87836L23.0985 8.88078L23.0974 8.88321L23.0963 8.88563L23.0952 8.88805L23.094 8.89047L23.0929 8.89289L23.0918 8.89531L23.0906 8.89773L23.0895 8.90015L23.0884 8.90256L23.0873 8.90498L23.0861 8.9074L23.085 8.90982L23.0839 8.91223L23.0828 8.91465L23.0816 8.91706L23.0805 8.91948L23.0794 8.9219L23.0783 8.92431L23.0771 8.92673L23.076 8.92914L23.0749 8.93156L23.0737 8.93397L23.0726 8.93639L23.0715 8.93881L23.0704 8.94122L23.0692 8.94364L23.0681 8.94606L23.067 8.94848L23.0659 8.95089L23.0647 8.95331L23.0636 8.95573L23.0625 8.95815L23.0613 8.96057L23.0602 8.96299L23.0591 8.96542L23.058 8.96784L23.0568 8.97026L23.0557 8.97269L23.0546 8.97511L23.0534 8.97754L23.0523 8.97997L23.0512 8.9824L23.05 8.98483L23.0489 8.98726L23.0478 8.98969L23.0466 8.99212L23.0455 8.99456L23.0444 8.997L23.0432 8.99943L23.0421 9.00187L23.0409 9.00431L23.0398 9.00676L23.0387 9.0092L23.0375 9.01164L23.0364 9.01409L23.0352 9.01654L23.0341 9.01899L23.033 9.02144L23.0318 9.0239L23.0307 9.02636L23.0295 9.02881L23.0284 9.03127L23.0272 9.03374L23.0261 9.0362L23.0249 9.03867L23.0238 9.04114L23.0226 9.04361L23.0215 9.04608L23.0203 9.04856L23.0192 9.05104L23.018 9.05352L23.0168 9.056L23.0157 9.05849L23.0145 9.06098L23.0134 9.06347L23.0127 9.06493L22.5372 8.68679L22.5215 8.67434L22.5049 8.66318L21.7264 8.13988Z" fill="#03318C" stroke="#03318C"/>
<path d="M18.1799 4.84915L19.832 5.61952" stroke="#03318C" stroke-width="1.5" stroke-linecap="round"/>
</g>
<defs>
<clipPath id="clip0_208_2197">
<rect width="34" height="34" fill="white"/>
</clipPath>
</defs>
</svg>
