<svg width="34" height="34" viewBox="0 0 34 34" fill="none" xmlns="http://www.w3.org/2000/svg">
<g clip-path="url(#clip0_208_2197)">
<rect width="34" height="34" fill="white"/>
<path d="M24.271 7.57279L25.6725 8.65967L26.5308 9.60962L27.2878 10.7144L28.0198 12.6172L28.2816 14.4741L28.2139 15.8594L27.7196 17.4216L27.092 18.7676L26.5658 19.896L25.8422 21.4476L25.6614 21.8355" stroke="#03318C" stroke-width="1.5" stroke-linecap="round" stroke-linejoin="round"/>
<mask id="path-2-inside-1_208_2197" fill="white">
<path d="M23.4918 17.8658C24.2717 16.1935 24.4479 14.323 23.9818 12.6659C23.5156 11.0089 22.4453 9.70096 21.0062 9.0299C19.5671 8.35885 17.8772 8.37963 16.3082 9.08767C14.7391 9.79572 13.4196 11.133 12.6397 12.8054L18.0658 15.3356L23.4918 17.8658Z"/>
</mask>
<path d="M23.4918 17.8658C24.2717 16.1935 24.4479 14.323 23.9818 12.6659C23.5156 11.0089 22.4453 9.70096 21.0062 9.0299C19.5671 8.35885 17.8772 8.37963 16.3082 9.08767C14.7391 9.79572 13.4196 11.133 12.6397 12.8054L18.0658 15.3356L23.4918 17.8658Z" fill="#03318C" fill-opacity="0.25" stroke="#03318C" stroke-width="2" mask="url(#path-2-inside-1_208_2197)"/>
<mask id="path-3-inside-2_208_2197" fill="white">
<path d="M7.98558 22.7862C7.19377 24.4843 7.00606 26.3794 7.46375 28.0546C7.92144 29.7298 8.98704 31.0479 10.4261 31.7189C11.8652 32.39 13.5599 32.359 15.1374 31.6328C16.7148 30.9066 18.0459 29.5447 18.8377 27.8467L13.4116 25.3165L7.98558 22.7862Z"/>
</mask>
<path d="M7.98558 22.7862C7.19377 24.4843 7.00606 26.3794 7.46375 28.0546C7.92144 29.7298 8.98704 31.0479 10.4261 31.7189C11.8652 32.39 13.5599 32.359 15.1374 31.6328C16.7148 30.9066 18.0459 29.5447 18.8377 27.8467L13.4116 25.3165L7.98558 22.7862Z" fill="#03318C" fill-opacity="0.25" stroke="#03318C" stroke-width="2" mask="url(#path-3-inside-2_208_2197)"/>
<rect x="12.8924" y="13.4733" width="10.96" height="10.1" transform="rotate(25 12.8924 13.4733)" fill="#03318C" fill-opacity="0.25" stroke="#03318C"/>
<ellipse cx="24.7711" cy="23.7448" rx="2.33828" ry="2.44221" transform="rotate(25 24.7711 23.7448)" fill="#03318C"/>
<path d="M18.3452 2.9748L16.9397 5.98892" stroke="#03318C" stroke-width="1.5" stroke-linecap="round"/>
<path d="M21.8711 8.13988L21.8388 8.11815L21.8035 8.10169L21.1575 7.80046C21.0126 7.7329 20.8616 7.67939 20.7065 7.64067L20.1531 7.50253L20.1344 7.49785L20.1153 7.49463L19.6877 7.42238L20.1105 6.51559C20.403 5.88834 20.6771 5.41685 21.0023 5.18722C21.3809 4.91984 21.6112 4.84671 21.989 4.77391C22.3073 4.71258 22.6919 4.7755 22.9557 4.8985C23.2366 5.02947 23.5968 5.32421 23.7467 5.59355C23.871 5.81684 23.923 5.93374 23.9565 6.05545C23.9923 6.18567 24.0135 6.34494 24.0404 6.66643C24.073 7.05736 23.9266 7.41526 23.5896 8.13791L23.5877 8.14197L23.5858 8.14603L23.5839 8.15007L23.5821 8.15409L23.5802 8.15811L23.5783 8.16212L23.5765 8.16611L23.5746 8.17009L23.5728 8.17405L23.5709 8.17801L23.5691 8.18195L23.5672 8.18588L23.5654 8.1898L23.5636 8.19371L23.5618 8.19761L23.56 8.20149L23.5582 8.20536L23.5564 8.20922L23.5546 8.21307L23.5528 8.21691L23.551 8.22073L23.5492 8.22455L23.5474 8.22835L23.5457 8.23214L23.5439 8.23592L23.5421 8.23969L23.5404 8.24345L23.5386 8.24719L23.5369 8.25093L23.5352 8.25465L23.5334 8.25836L23.5317 8.26207L23.53 8.26576L23.5283 8.26944L23.5266 8.2731L23.5249 8.27676L23.5232 8.28041L23.5215 8.28405L23.5198 8.28767L23.5181 8.29129L23.5164 8.29489L23.5147 8.29848L23.5131 8.30207L23.5114 8.30564L23.5097 8.3092L23.5081 8.31275L23.5064 8.31629L23.5048 8.31983L23.5031 8.32335L23.5015 8.32686L23.4999 8.33036L23.4982 8.33385L23.4966 8.33733L23.495 8.3408L23.4934 8.34426L23.4918 8.34771L23.4902 8.35115L23.4886 8.35458L23.487 8.358L23.4854 8.36142L23.4838 8.36482L23.4822 8.36821L23.4806 8.37159L23.4791 8.37497L23.4775 8.37833L23.4759 8.38168L23.4744 8.38503L23.4728 8.38836L23.4713 8.39169L23.4697 8.39501L23.4682 8.39831L23.4666 8.40161L23.4651 8.4049L23.4636 8.40818L23.4621 8.41145L23.4605 8.41472L23.459 8.41797L23.4575 8.42121L23.456 8.42445L23.4545 8.42768L23.453 8.4309L23.4515 8.43411L23.45 8.43731L23.4485 8.4405L23.447 8.44368L23.4455 8.44686L23.4441 8.45002L23.4426 8.45318L23.4411 8.45633L23.4397 8.45948L23.4382 8.46261L23.4367 8.46573L23.4353 8.46885L23.4338 8.47196L23.4324 8.47506L23.431 8.47815L23.4295 8.48124L23.4281 8.48432L23.4266 8.48739L23.4252 8.49045L23.4238 8.4935L23.4224 8.49655L23.421 8.49959L23.4195 8.50262L23.4181 8.50564L23.4167 8.50865L23.4153 8.51166L23.4139 8.51466L23.4125 8.51766L23.4111 8.52064L23.4097 8.52362L23.4084 8.52659L23.407 8.52955L23.4056 8.53251L23.4042 8.53546L23.4029 8.5384L23.4015 8.54134L23.4001 8.54427L23.3988 8.54719L23.3974 8.5501L23.396 8.55301L23.3947 8.55591L23.3933 8.55881L23.392 8.56169L23.3907 8.56458L23.3893 8.56745L23.388 8.57032L23.3866 8.57318L23.3853 8.57603L23.384 8.57888L23.3827 8.58172L23.3813 8.58456L23.38 8.58739L23.3787 8.59021L23.3774 8.59303L23.3761 8.59584L23.3748 8.59865L23.3735 8.60144L23.3722 8.60424L23.3709 8.60702L23.3696 8.6098L23.3683 8.61258L23.367 8.61535L23.3657 8.61811L23.3644 8.62087L23.3631 8.62362L23.3618 8.62637L23.3606 8.62911L23.3593 8.63185L23.358 8.63458L23.3567 8.6373L23.3555 8.64002L23.3542 8.64273L23.3529 8.64544L23.3517 8.64814L23.3504 8.65084L23.3492 8.65354L23.3479 8.65622L23.3467 8.65891L23.3454 8.66158L23.3442 8.66426L23.3429 8.66693L23.3417 8.66959L23.3404 8.67225L23.3392 8.6749L23.338 8.67755L23.3367 8.68019L23.3355 8.68283L23.3343 8.68547L23.3331 8.6881L23.3318 8.69072L23.3306 8.69335L23.3294 8.69596L23.3282 8.69858L23.3269 8.70119L23.3257 8.70379L23.3245 8.70639L23.3233 8.70899L23.3221 8.71158L23.3209 8.71417L23.3197 8.71675L23.3185 8.71933L23.3173 8.7219L23.3161 8.72448L23.3149 8.72705L23.3137 8.72961L23.3125 8.73217L23.3113 8.73473L23.3101 8.73728L23.3089 8.73983L23.3077 8.74238L23.3066 8.74492L23.3054 8.74746L23.3042 8.75L23.303 8.75253L23.3018 8.75506L23.3007 8.75758L23.2995 8.76011L23.2983 8.76263L23.2971 8.76514L23.296 8.76766L23.2948 8.77017L23.2936 8.77267L23.2924 8.77518L23.2913 8.77768L23.2901 8.78018L23.2889 8.78268L23.2878 8.78517L23.2866 8.78766L23.2855 8.79015L23.2843 8.79263L23.2831 8.79512L23.282 8.7976L23.2808 8.80008L23.2797 8.80255L23.2785 8.80502L23.2774 8.80749L23.2762 8.80996L23.2751 8.81243L23.2739 8.81489L23.2728 8.81736L23.2716 8.81982L23.2705 8.82227L23.2693 8.82473L23.2682 8.82719L23.2671 8.82964L23.2659 8.83209L23.2648 8.83454L23.2636 8.83698L23.2625 8.83943L23.2613 8.84187L23.2602 8.84431L23.2591 8.84675L23.2579 8.84919L23.2568 8.85163L23.2557 8.85407L23.2545 8.8565L23.2534 8.85894L23.2523 8.86137L23.2511 8.8638L23.25 8.86623L23.2489 8.86866L23.2477 8.87108L23.2466 8.87351L23.2455 8.87594L23.2443 8.87836L23.2432 8.88078L23.2421 8.88321L23.2409 8.88563L23.2398 8.88805L23.2387 8.89047L23.2376 8.89289L23.2364 8.89531L23.2353 8.89773L23.2342 8.90015L23.233 8.90256L23.2319 8.90498L23.2308 8.9074L23.2297 8.90982L23.2285 8.91223L23.2274 8.91465L23.2263 8.91706L23.2252 8.91948L23.224 8.9219L23.2229 8.92431L23.2218 8.92673L23.2207 8.92914L23.2195 8.93156L23.2184 8.93397L23.2173 8.93639L23.2161 8.93881L23.215 8.94122L23.2139 8.94364L23.2128 8.94606L23.2116 8.94848L23.2105 8.95089L23.2094 8.95331L23.2083 8.95573L23.2071 8.95815L23.206 8.96057L23.2049 8.96299L23.2037 8.96542L23.2026 8.96784L23.2015 8.97026L23.2003 8.97269L23.1992 8.97511L23.1981 8.97754L23.197 8.97997L23.1958 8.9824L23.1947 8.98483L23.1936 8.98726L23.1924 8.98969L23.1913 8.99212L23.1901 8.99456L23.189 8.997L23.1879 8.99943L23.1867 9.00187L23.1856 9.00431L23.1845 9.00676L23.1833 9.0092L23.1822 9.01164L23.181 9.01409L23.1799 9.01654L23.1788 9.01899L23.1776 9.02144L23.1765 9.0239L23.1753 9.02636L23.1742 9.02881L23.173 9.03127L23.1719 9.03374L23.1707 9.0362L23.1696 9.03867L23.1684 9.04114L23.1673 9.04361L23.1661 9.04608L23.165 9.04856L23.1638 9.05104L23.1627 9.05352L23.1615 9.056L23.1603 9.05849L23.1592 9.06098L23.158 9.06347L23.1573 9.06493L22.6818 8.68679L22.6661 8.67434L22.6495 8.66318L21.8711 8.13988Z" fill="#03318C" stroke="#03318C"/>
<path d="M18.3246 4.84915L19.9766 5.61952" stroke="#03318C" stroke-width="1.5" stroke-linecap="round"/>
</g>
<defs>
<clipPath id="clip0_208_2197">
<rect width="34" height="34" fill="white"/>
</clipPath>
</defs>
</svg>
