<svg width="34" height="34" viewBox="0 0 34 34" fill="none" xmlns="http://www.w3.org/2000/svg">
<rect width="34" height="34" fill="white"/>
<path d="M32 17C32 25.2706 25.2706 32 17 32C8.72938 32 2 25.2706 2 17C2 8.72938 8.72938 2 17 2C25.2706 2 32 8.72938 32 17ZM17 2.9375C9.24594 2.9375 2.9375 9.24594 2.9375 17C2.9375 24.7541 9.24594 31.0625 17 31.0625C24.7541 31.0625 31.0625 24.7541 31.0625 17C31.0625 9.24594 24.7541 2.9375 17 2.9375Z" fill="#03318C"/>
<path d="M17 29.1875C10.28 29.1875 4.8125 23.72 4.8125 17C4.8125 10.28 10.28 4.8125 17 4.8125C23.72 4.8125 29.1875 10.28 29.1875 17C29.1875 23.72 23.72 29.1875 17 29.1875ZM17.9375 5.79781V7.22844C17.9375 7.35276 17.8881 7.47199 17.8002 7.55989C17.7123 7.6478 17.5931 7.69719 17.4688 7.69719C17.3444 7.69719 17.2252 7.6478 17.1373 7.55989C17.0494 7.47199 17 7.35276 17 7.22844V5.75C11.1134 5.75 6.27688 10.2969 5.79781 16.0625H7.22937C7.35369 16.0625 7.47292 16.1119 7.56083 16.1998C7.64874 16.2877 7.69812 16.4069 7.69812 16.5312C7.69812 16.6556 7.64874 16.7748 7.56083 16.8627C7.47292 16.9506 7.35369 17 7.22937 17H5.75C5.75 23.2034 10.7966 28.25 17 28.25V26.7716C17 26.6472 17.0494 26.528 17.1373 26.4401C17.2252 26.3522 17.3444 26.3028 17.4688 26.3028C17.5931 26.3028 17.7123 26.3522 17.8002 26.4401C17.8881 26.528 17.9375 26.6472 17.9375 26.7716V28.2022C23.7022 27.7231 28.25 22.8875 28.25 17H26.7706C26.6463 17 26.5271 16.9506 26.4392 16.8627C26.3513 16.7748 26.3019 16.6556 26.3019 16.5312C26.3019 16.4069 26.3513 16.2877 26.4392 16.1998C26.5271 16.1119 26.6463 16.0625 26.7706 16.0625H28.2022C27.7494 10.6072 23.3928 6.25063 17.9375 5.79781Z" fill="#03318C"/>
<path d="M23.2006 23.6009C23.1024 23.601 23.0066 23.5701 22.9268 23.5128L17.6637 19.7291C17.45 19.7816 17.2297 19.8162 17 19.8162C15.4493 19.8162 14.1875 18.5544 14.1875 17.0037C14.1897 16.7866 14.2171 16.5705 14.269 16.3597L10.4197 11.0047C10.3554 10.9143 10.3252 10.804 10.3345 10.6935C10.3437 10.583 10.3918 10.4793 10.4702 10.4008C10.5486 10.3223 10.6522 10.2741 10.7627 10.2647C10.8732 10.2552 10.9835 10.2853 11.074 10.3494L16.4909 14.2428C16.659 14.2099 16.8297 14.1927 17.0009 14.1912C18.5515 14.1912 19.8134 15.4531 19.8134 17.0037C19.8134 17.1866 19.7928 17.3656 19.759 17.5391L23.5812 22.8584C23.6313 22.9286 23.661 23.0111 23.6673 23.097C23.6736 23.1829 23.6562 23.2689 23.6169 23.3455C23.5776 23.4222 23.518 23.4865 23.4445 23.5316C23.3711 23.5766 23.2867 23.6006 23.2006 23.6009V23.6009ZM18.875 17.0047C18.875 15.9706 18.034 15.1297 17 15.1297C15.9659 15.1297 15.125 15.9706 15.125 17.0047C15.125 18.0387 15.9659 18.8797 17 18.8797C18.034 18.8797 18.875 18.0378 18.875 17.0047ZM12.8525 12.7841L14.7153 15.3762C14.9166 15.0931 15.1683 14.8494 15.4578 14.6572L12.8525 12.7841V12.7841ZM19.339 18.5628C19.1525 18.8422 18.9134 19.0812 18.6425 19.2781L21.1475 21.0791L19.339 18.5628Z" fill="#03318C"/>
</svg>
